<?xml version="1.0" encoding="utf-8"?>
<!-- Generator: Adobe Illustrator 19.0.0, SVG Export Plug-In . SVG Version: 6.00 Build 0)  -->
<svg version="1.1" id="Layer_1" xmlns="http://www.w3.org/2000/svg" xmlns:xlink="http://www.w3.org/1999/xlink" x="0px" y="0px"
	 viewBox="0 0 587.3 194" enable-background="new 0 0 587.3 194" xml:space="preserve">
<path id="XMLID_38_" fill="#08519F" d="M84,85.6c-6,0-11.6-1-16.5-3.1c-5-2.1-9.2-4.9-12.8-8.5c-3.6-3.6-6.3-7.7-8.2-12.4
	c-1.9-4.7-2.9-9.7-2.9-15c0-5.4,1-10.5,3-15.2c2-4.8,4.7-8.9,8.3-12.4c3.5-3.5,7.7-6.3,12.6-8.3c4.9-2,10.2-3.1,15.9-3.1
	c4.1,0,7.9,0.5,11.4,1.4c3.6,0.9,6.8,2.3,9.9,4c3,1.7,5.7,3.8,8.1,6.2c2.4,2.4,4.4,5,6,7.9L106,34c-2.4-4.1-5.5-7.2-9.2-9.2
	c-3.7-2.1-8.2-3.1-13.3-3.1c-3.6,0-7,0.7-10.1,2c-3.1,1.3-5.8,3.1-8.1,5.4c-2.3,2.3-4.1,4.9-5.4,7.9c-1.3,3-1.9,6.2-1.9,9.7
	c0,3.5,0.6,6.7,1.9,9.8s3.1,5.6,5.4,7.9c2.3,2.3,5.1,4,8.3,5.3c3.2,1.3,6.7,2,10.4,2c5.8,0,10.7-1.5,14.6-4.6
	c3.9-3.1,6.5-7.1,7.9-12.3H81.7V40.8h40.4v5.8c0,5.3-0.9,10.3-2.7,15c-1.8,4.7-4.3,8.9-7.6,12.4c-3.3,3.6-7.3,6.4-12,8.5
	C95.1,84.6,89.9,85.6,84,85.6z"/>
<path id="XMLID_40_" fill="#08519F" d="M159.5,85.6c-4.9,0-9.4-0.8-13.4-2.4c-4.1-1.6-7.5-3.8-10.4-6.6c-2.9-2.8-5.1-6.1-6.7-9.9
	c-1.6-3.8-2.4-7.9-2.4-12.2c0-4.4,0.8-8.5,2.5-12.3c1.7-3.8,4-7.2,6.9-10c2.9-2.8,6.3-5,10.3-6.7c3.9-1.6,8.2-2.5,12.7-2.5
	c4.6,0,8.9,0.7,12.8,2.2c3.9,1.5,7.3,3.6,10.2,6.3c2.8,2.7,5.1,5.9,6.7,9.5c1.6,3.7,2.4,7.7,2.4,12v5.1h-50.8c1,4.4,3.2,8,6.5,10.7
	c3.3,2.7,7.6,4.1,12.7,4.1c4.1,0,7.6-1,10.6-3c3-2,5.2-4.7,6.7-8l11.8,6.8c-2.7,5-6.5,9.1-11.4,12.2
	C172.4,84.1,166.5,85.6,159.5,85.6z M159,35.7c-4.3,0-8.1,1-11.2,2.9c-3.2,1.9-5.4,4.4-6.7,7.6h35.4c-1.1-3.4-3.1-6-6.2-7.8
	C167.2,36.6,163.5,35.7,159,35.7z"/>
<path id="XMLID_43_" fill="#08519F" d="M195.2,23.1h10.7v-9.5l14.5-9.9v19.4h12.7v12.9h-12.7v23.4c0,2.7,0.1,4.9,0.4,6.6
	c0.3,1.7,0.9,3,1.8,3.8c0.9,0.9,2.2,1.5,3.8,1.8c1.7,0.3,3.9,0.4,6.7,0.4v13.5h-2c-4.8,0-8.9-0.4-12.1-1.3c-3.2-0.9-5.8-2.3-7.7-4.3
	c-1.9-2-3.3-4.7-4.1-8c-0.8-3.3-1.2-7.4-1.2-12.4V36.1h-10.7V23.1z"/>
<path id="XMLID_45_" fill="#08519F" d="M266.5,7.7h14.4l23.6,32.7L329,7.7h13.8v77.8h-14.5V30.9l-23.9,32.2L281,31.5v54.1h-14.5V7.7
	z"/>
<path id="XMLID_47_" fill="#08519F" d="M381.5,85.6c-4.5,0-8.7-0.8-12.6-2.4c-3.9-1.6-7.4-3.8-10.3-6.7c-2.9-2.8-5.2-6.2-6.9-10
	c-1.7-3.8-2.5-7.9-2.5-12.2c0-4.4,0.8-8.5,2.5-12.3c1.7-3.8,4-7.1,6.9-10c2.9-2.8,6.3-5.1,10.3-6.7c3.9-1.6,8.2-2.4,12.6-2.4
	c4.5,0,8.7,0.8,12.6,2.4c3.9,1.6,7.3,3.8,10.3,6.7c2.9,2.8,5.3,6.2,6.9,10c1.7,3.8,2.5,7.9,2.5,12.3c0,4.3-0.8,8.4-2.5,12.2
	c-1.7,3.8-4,7.1-6.9,10c-3,2.8-6.4,5.1-10.3,6.7C390.2,84.8,386,85.6,381.5,85.6z M381.5,72.1c2.6,0,4.9-0.5,7.1-1.4
	c2.2-0.9,4.1-2.2,5.8-3.8c1.6-1.6,2.9-3.5,3.8-5.7c0.9-2.2,1.4-4.5,1.4-6.9c0-2.5-0.5-4.8-1.4-7c-0.9-2.2-2.2-4.1-3.8-5.7
	c-1.6-1.6-3.6-2.9-5.8-3.8c-2.2-0.9-4.6-1.4-7.1-1.4c-2.6,0-5,0.5-7.2,1.4c-2.2,0.9-4.2,2.2-5.8,3.8c-1.6,1.6-2.9,3.5-3.8,5.7
	c-0.9,2.2-1.4,4.5-1.4,7c0,2.4,0.5,4.7,1.4,6.9c0.9,2.2,2.2,4.1,3.8,5.7c1.6,1.6,3.5,2.9,5.8,3.8C376.6,71.6,379,72.1,381.5,72.1z"
	/>
<path id="XMLID_52_" fill="#08519F" d="M420.1,23.1h14.3v9.3c2.9-6.2,8.2-9.3,16-9.3c2.3,0,4.3,0.2,6.1,0.7c1.8,0.5,3.4,1.1,4.9,1.9
	l-5.4,13.6c-1.1-0.7-2.3-1.3-3.6-1.8c-1.3-0.5-3-0.7-5.1-0.7c-4.2,0-7.4,1.2-9.5,3.6c-2.2,2.4-3.3,6.3-3.3,11.7v33.3h-14.4V23.1z"/>
<path id="XMLID_54_" fill="#08519F" d="M497,85.6c-4.9,0-9.4-0.8-13.4-2.4c-4.1-1.6-7.5-3.8-10.4-6.6c-2.9-2.8-5.1-6.1-6.7-9.9
	c-1.6-3.8-2.4-7.9-2.4-12.2c0-4.4,0.8-8.5,2.5-12.3c1.7-3.8,4-7.2,6.9-10c2.9-2.8,6.3-5,10.3-6.7c3.9-1.6,8.2-2.5,12.7-2.5
	c4.6,0,8.9,0.7,12.8,2.2c3.9,1.5,7.3,3.6,10.2,6.3c2.8,2.7,5.1,5.9,6.7,9.5c1.6,3.7,2.4,7.7,2.4,12v5.1h-50.8c1,4.4,3.2,8,6.5,10.7
	c3.3,2.7,7.6,4.1,12.7,4.1c4.1,0,7.6-1,10.6-3c3-2,5.2-4.7,6.7-8l11.8,6.8c-2.7,5-6.5,9.1-11.4,12.2C509.9,84.1,504,85.6,497,85.6z
	 M496.5,35.7c-4.3,0-8.1,1-11.2,2.9c-3.2,1.9-5.4,4.4-6.7,7.6h35.4c-1.1-3.4-3.1-6-6.2-7.8C504.7,36.6,500.9,35.7,496.5,35.7z"/>
<path id="XMLID_57_" fill="#08519F" d="M533.1,77c0-2.6,0.8-4.7,2.3-6.3c1.6-1.6,3.7-2.4,6.4-2.4c2.7,0,4.8,0.8,6.3,2.4
	c1.5,1.6,2.3,3.7,2.3,6.3c0,2.6-0.8,4.6-2.3,6.2c-1.6,1.6-3.7,2.4-6.4,2.4c-2.7,0-4.8-0.8-6.3-2.4C533.9,81.6,533.1,79.6,533.1,77z
	 M538,64.4c-0.5-3.2-0.9-6.6-1.3-10.3c-0.4-3.7-0.7-7.4-1-11.2c-0.3-3.8-0.5-7.7-0.7-11.6c-0.2-3.9-0.3-7.6-0.3-11.1V7.7H549v12.5
	c0,3.6-0.1,7.3-0.2,11.1c-0.1,3.9-0.4,7.7-0.6,11.6c-0.3,3.8-0.6,7.6-1,11.2c-0.4,3.7-0.8,7.1-1.3,10.3H538z"/>
<path id="XMLID_60_" fill="#08519F" d="M44.4,187.9c-6,0-11.6-1-16.5-3.1c-5-2.1-9.2-4.9-12.8-8.5c-3.6-3.6-6.3-7.7-8.2-12.4
	c-1.9-4.7-2.9-9.7-2.9-15c0-5.4,1-10.5,3-15.2c2-4.8,4.7-8.9,8.3-12.4c3.5-3.5,7.7-6.3,12.6-8.3c4.9-2,10.2-3.1,15.9-3.1
	c4.1,0,7.9,0.5,11.4,1.4c3.6,0.9,6.8,2.3,9.9,4c3,1.7,5.7,3.8,8.1,6.2c2.4,2.4,4.4,5,6,7.9l-12.8,7c-2.4-4.1-5.5-7.2-9.2-9.2
	C53.4,125,49,124,43.9,124c-3.6,0-7,0.7-10.1,2c-3.1,1.3-5.8,3.1-8.1,5.4c-2.3,2.3-4.1,4.9-5.4,7.9c-1.3,3-1.9,6.2-1.9,9.7
	c0,3.5,0.6,6.7,1.9,9.8c1.3,3,3.1,5.6,5.4,7.9c2.3,2.3,5.1,4,8.3,5.3c3.2,1.3,6.7,2,10.4,2c5.8,0,10.7-1.5,14.6-4.6
	c3.9-3.1,6.5-7.1,7.9-12.3H42v-13.9h40.4v5.8c0,5.3-0.9,10.3-2.7,15c-1.8,4.7-4.3,8.9-7.6,12.4c-3.3,3.6-7.3,6.4-12,8.5
	C55.5,186.9,50.2,187.9,44.4,187.9z"/>
<path id="XMLID_63_" fill="#08519F" d="M119.9,187.9c-4.9,0-9.4-0.8-13.4-2.4c-4.1-1.6-7.5-3.8-10.4-6.6c-2.9-2.8-5.1-6.1-6.7-9.9
	c-1.6-3.8-2.4-7.9-2.4-12.2c0-4.4,0.8-8.5,2.5-12.3c1.7-3.8,4-7.2,6.9-10c2.9-2.8,6.3-5,10.3-6.7c3.9-1.6,8.2-2.5,12.7-2.5
	c4.6,0,8.9,0.7,12.8,2.2c3.9,1.5,7.3,3.6,10.2,6.3c2.8,2.7,5.1,5.9,6.7,9.5c1.6,3.7,2.4,7.7,2.4,12v5.1h-50.8c1,4.4,3.2,8,6.5,10.7
	c3.3,2.7,7.6,4.1,12.7,4.1c4.1,0,7.6-1,10.6-3c3-2,5.2-4.7,6.7-8l11.8,6.8c-2.7,5-6.5,9.1-11.4,12.2
	C132.8,186.4,126.9,187.9,119.9,187.9z M119.4,138c-4.3,0-8.1,1-11.2,2.9c-3.2,1.9-5.4,4.4-6.7,7.6h35.4c-1.1-3.4-3.1-6-6.2-7.8
	C127.6,138.9,123.8,138,119.4,138z"/>
<path id="XMLID_67_" fill="#08519F" d="M155.6,125.5h10.7V116l14.5-9.9v19.4h12.7v12.9h-12.7v23.4c0,2.7,0.1,4.9,0.4,6.6
	c0.3,1.7,0.9,3,1.8,3.8c0.9,0.9,2.2,1.5,3.8,1.8c1.7,0.3,3.9,0.4,6.7,0.4v13.5h-2c-4.8,0-8.9-0.4-12.1-1.3c-3.2-0.9-5.8-2.3-7.7-4.3
	c-1.9-2-3.3-4.7-4.1-8c-0.8-3.3-1.2-7.4-1.2-12.4v-23.5h-10.7V125.5z"/>
<path id="XMLID_69_" fill="#08519F" d="M227.4,110h14.5v77.8h-14.5V110z"/>
<path id="XMLID_71_" fill="#08519F" d="M248.8,125.5h10.7V116L274,106v19.4h12.7v12.9H274v23.4c0,2.7,0.1,4.9,0.4,6.6
	c0.3,1.7,0.9,3,1.8,3.8c0.9,0.9,2.2,1.5,3.8,1.8c1.7,0.3,3.9,0.4,6.7,0.4v13.5h-2c-4.8,0-8.9-0.4-12.1-1.3c-3.2-0.9-5.8-2.3-7.7-4.3
	c-1.9-2-3.3-4.7-4.1-8c-0.8-3.3-1.2-7.4-1.2-12.4v-23.5h-10.7V125.5z"/>
<path id="XMLID_73_" fill="#08519F" d="M320,110h16.4l33.7,53v-53h14.5v77.8h-15.5l-34.7-54.7v54.7H320V110z"/>
<path id="XMLID_75_" fill="#08519F" d="M423.6,187.9c-4.5,0-8.7-0.8-12.6-2.4c-3.9-1.6-7.4-3.8-10.3-6.7c-2.9-2.8-5.2-6.2-6.9-10
	c-1.7-3.8-2.5-7.9-2.5-12.2c0-4.4,0.8-8.5,2.5-12.3c1.7-3.8,4-7.1,6.9-10c2.9-2.8,6.3-5.1,10.3-6.7c3.9-1.6,8.2-2.4,12.6-2.4
	c4.5,0,8.7,0.8,12.6,2.4c3.9,1.6,7.3,3.8,10.3,6.7c2.9,2.8,5.3,6.2,6.9,10c1.7,3.8,2.5,7.9,2.5,12.3c0,4.3-0.8,8.4-2.5,12.2
	c-1.7,3.8-4,7.1-6.9,10c-3,2.8-6.4,5.1-10.3,6.7S428,187.9,423.6,187.9z M423.6,174.4c2.6,0,4.9-0.5,7.1-1.4
	c2.2-0.9,4.1-2.2,5.8-3.8c1.6-1.6,2.9-3.5,3.8-5.7c0.9-2.2,1.4-4.5,1.4-6.9c0-2.5-0.5-4.8-1.4-7c-0.9-2.2-2.2-4.1-3.8-5.7
	c-1.6-1.6-3.6-2.9-5.8-3.8c-2.2-0.9-4.6-1.4-7.1-1.4c-2.6,0-5,0.5-7.2,1.4c-2.2,0.9-4.2,2.2-5.8,3.8c-1.6,1.6-2.9,3.5-3.8,5.7
	c-0.9,2.2-1.4,4.5-1.4,7c0,2.4,0.5,4.7,1.4,6.9c0.9,2.2,2.2,4.1,3.8,5.7c1.6,1.6,3.5,2.9,5.8,3.8C418.6,173.9,421,174.4,423.6,174.4
	z"/>
<path id="XMLID_78_" fill="#08519F" d="M459.9,125.5h14.7l13.8,43l15.7-43h14.3l15.4,43.1l14.3-43.1h14.6l-21.9,62.4h-13.9
	l-15.8-43.2l-16.2,43.2h-14.2L459.9,125.5z"/>
<path id="XMLID_80_" fill="#08519F" d="M566.4,179.3c0-2.6,0.8-4.7,2.3-6.3c1.6-1.6,3.7-2.4,6.4-2.4c2.7,0,4.8,0.8,6.3,2.4
	c1.5,1.6,2.3,3.7,2.3,6.3c0,2.6-0.8,4.6-2.3,6.2c-1.6,1.6-3.7,2.4-6.4,2.4c-2.7,0-4.8-0.8-6.3-2.4
	C567.2,183.9,566.4,181.9,566.4,179.3z M571.3,166.7c-0.5-3.2-0.9-6.6-1.3-10.3c-0.4-3.7-0.7-7.4-1-11.2c-0.3-3.8-0.5-7.7-0.7-11.6
	c-0.2-3.9-0.3-7.6-0.3-11.1V110h14.3v12.5c0,3.6-0.1,7.3-0.2,11.1c-0.1,3.9-0.4,7.7-0.6,11.6c-0.3,3.8-0.6,7.6-1,11.2
	c-0.4,3.7-0.8,7.1-1.3,10.3H571.3z"/>
<g id="XMLID_105_">
</g>
<g id="XMLID_106_">
</g>
<g id="XMLID_107_">
</g>
<g id="XMLID_108_">
</g>
<g id="XMLID_109_">
</g>
<g id="XMLID_110_">
</g>
</svg>
