<?xml version="1.0" encoding="utf-8"?>
<!-- Generator: Adobe Illustrator 19.0.0, SVG Export Plug-In . SVG Version: 6.00 Build 0)  -->
<svg version="1.1" id="Layer_1" xmlns="http://www.w3.org/2000/svg" xmlns:xlink="http://www.w3.org/1999/xlink" x="0px" y="0px"
	 viewBox="-23 339 565 116" style="enable-background:new -23 339 565 116;" xml:space="preserve">
<style type="text/css">
	.st0{fill:#FFFFFF;}
	.st1{fill:none;stroke:#2BACE2;stroke-width:0.5256;stroke-miterlimit:10;}
	.st2{fill:url(#XMLID_2_);}
	.st3{fill:url(#XMLID_3_);}
</style>
<g id="XMLID_172_">
</g>
<g id="XMLID_173_">
</g>
<g id="XMLID_174_">
</g>
<g id="XMLID_175_">
</g>
<g id="XMLID_176_">
</g>
<g id="XMLID_177_">
</g>
<g id="XMLID_29_">
</g>
<path id="XMLID_118_" class="st0" d="M280.9,389.2c4.1-29.4,37.2-46.5,66.3-44.3L537,359.6l-3.8,48.8c-4.1,29.4-37.3,46.5-66.3,44.3
	L277.1,438L280.9,389.2z"/>
<path id="XMLID_117_" class="st1" d="M280.9,389.2c4.1-29.4,37.2-46.5,66.3-44.3L537,359.6l-3.8,48.8c-4.1,29.4-37.3,46.5-66.3,44.3
	L277.1,438L280.9,389.2z"/>
<linearGradient id="XMLID_2_" gradientUnits="userSpaceOnUse" x1="287.2" y1="401.2846" x2="527" y2="401.2846" gradientTransform="matrix(1 0 0 -1 0 800)">
	<stop  offset="0" style="stop-color:#0A529E"/>
	<stop  offset="1" style="stop-color:#0C6DB6"/>
</linearGradient>
<path id="XMLID_116_" class="st2" d="M287.2,399c1.7-29.7,31.8-49.3,59.4-49.3H527v48.9c-1.7,29.6-31.8,49.2-59.4,49.2H287.2V399z"
	/>
<g id="XMLID_21_">
	<path id="XMLID_101_" class="st0" d="M383.8,365.7h13.8v4.2h-9.5v5.4h9.5v4.2h-9.5v5.5h9.5v4.2h-13.8V365.7z"/>
	<path id="XMLID_25_" class="st0" d="M400.1,365.7h4.3l7.1,9.8l7.4-9.8h4.1V389h-4.3v-16.3l-7.2,9.7l-7-9.5v16.2h-4.3v-23.4H400.1z"
		/>
	<path id="XMLID_75_" class="st0" d="M425.8,365.7h4.3V389h-4.3V365.7z"/>
	<path id="XMLID_252_" class="st0" d="M326.9,409.6c-0.8,0-1.6-0.1-2.3-0.4c-0.7-0.2-1.3-0.6-1.8-1.1s-0.9-1.1-1.2-1.8
		c-0.3-0.7-0.4-1.5-0.4-2.4v-10.1h2.9v10.4c0,0.4,0.1,0.7,0.2,1.1s0.3,0.6,0.6,0.9c0.2,0.2,0.5,0.4,0.9,0.6s0.7,0.2,1.1,0.2
		s0.8-0.1,1.1-0.2c0.3-0.1,0.6-0.3,0.9-0.6c0.3-0.2,0.5-0.5,0.6-0.9c0.1-0.3,0.2-0.7,0.2-1.1v-10.4h2.9V404c0,0.9-0.1,1.7-0.4,2.4
		c-0.3,0.7-0.7,1.3-1.2,1.8s-1.1,0.8-1.8,1.1C328.5,409.5,327.7,409.6,326.9,409.6z"/>
	<path id="XMLID_254_" class="st0" d="M341.4,409.6c-0.9,0-1.7-0.2-2.4-0.5c-0.7-0.3-1.3-0.7-1.8-1.3v7.6h-2.9v-18.5h2.9v1.9
		c0.4-0.6,1-1,1.7-1.4c0.7-0.3,1.5-0.5,2.4-0.5c0.8,0,1.6,0.1,2.3,0.4c0.8,0.3,1.4,0.7,2,1.2s1,1.2,1.4,2s0.5,1.7,0.5,2.7
		s-0.2,1.9-0.5,2.7c-0.4,0.8-0.8,1.5-1.4,2s-1.2,1-2,1.2C342.8,409.3,342.1,409.6,341.4,409.6z M340.9,406.9c0.5,0,1-0.1,1.5-0.3
		s0.9-0.5,1.2-0.8c0.3-0.3,0.6-0.7,0.8-1.2c0.2-0.5,0.3-0.9,0.3-1.5s-0.1-1-0.3-1.4c-0.2-0.4-0.5-0.8-0.8-1.2
		c-0.3-0.3-0.8-0.6-1.2-0.8c-0.5-0.2-1-0.3-1.5-0.3s-1.1,0.1-1.5,0.3c-0.5,0.2-0.9,0.5-1.2,0.8c-0.3,0.3-0.6,0.7-0.8,1.2
		c-0.2,0.4-0.3,0.9-0.3,1.4s0.1,1,0.3,1.4c0.2,0.4,0.4,0.8,0.8,1.2c0.3,0.3,0.7,0.6,1.2,0.8C339.8,406.8,340.3,406.9,340.9,406.9z"
		/>
	<path id="XMLID_257_" class="st0" d="M353.6,396.9h2.2V395l2.9-2v3.9h2.6v2.6h-2.6v4.7c0,0.5,0,1,0.1,1.3s0.2,0.6,0.4,0.8
		c0.2,0.2,0.4,0.3,0.8,0.4c0.3,0.1,0.8,0.1,1.4,0.1v2.8H361c-1,0-1.8-0.1-2.5-0.3c-0.7-0.2-1.2-0.5-1.6-0.9s-0.7-1-0.8-1.6
		c-0.2-0.7-0.2-1.5-0.2-2.5v-4.8h-2.2L353.6,396.9L353.6,396.9z"/>
	<path id="XMLID_259_" class="st0" d="M368.9,409.6c-0.9,0-1.8-0.2-2.6-0.5c-0.8-0.3-1.5-0.8-2.1-1.4s-1.1-1.3-1.4-2
		c-0.3-0.8-0.5-1.6-0.5-2.5s0.2-1.7,0.5-2.5s0.8-1.4,1.4-2s1.3-1,2.1-1.4c0.8-0.3,1.7-0.5,2.6-0.5s1.8,0.2,2.6,0.5
		c0.8,0.3,1.5,0.8,2.1,1.4s1.1,1.3,1.4,2c0.3,0.8,0.5,1.6,0.5,2.5s-0.2,1.7-0.5,2.5s-0.8,1.4-1.4,2s-1.3,1-2.1,1.4
		C370.6,409.4,369.8,409.6,368.9,409.6z M368.9,406.8c0.5,0,1-0.1,1.5-0.3c0.5-0.2,0.8-0.4,1.2-0.8c0.3-0.3,0.6-0.7,0.8-1.1
		c0.2-0.4,0.3-0.9,0.3-1.4s-0.1-1-0.3-1.4c-0.2-0.4-0.4-0.8-0.8-1.1c-0.4-0.3-0.7-0.6-1.2-0.8c-0.4-0.2-0.9-0.3-1.5-0.3
		s-1,0.1-1.5,0.3c-0.5,0.2-0.8,0.4-1.2,0.8s-0.6,0.7-0.8,1.1c-0.2,0.4-0.3,0.9-0.3,1.4s0.1,1,0.3,1.4c0.2,0.4,0.4,0.8,0.8,1.1
		c0.3,0.3,0.7,0.6,1.2,0.8S368.4,406.8,368.9,406.8z"/>
	<path id="XMLID_262_" class="st0" d="M382,406.8c0-0.7,0.1-1.3,0.4-1.8c0.2-0.5,0.6-1,1-1.5c0.4-0.4,0.8-0.9,1.3-1.2
		c0.5-0.4,1-0.7,1.5-1c0.4-0.3,0.8-0.5,1.1-0.8c0.3-0.3,0.7-0.5,1-0.7s0.5-0.5,0.7-0.8s0.2-0.5,0.2-0.8c0-0.5-0.2-0.9-0.6-1.3
		s-0.9-0.5-1.6-0.5s-1.3,0.2-1.7,0.6c-0.4,0.4-0.8,1-1.1,1.7l-2.5-1.2c0.5-1.1,1.2-2,2.1-2.6s2-1,3.3-1c0.8,0,1.5,0.1,2.2,0.3
		c0.6,0.2,1.2,0.5,1.6,0.9s0.8,0.9,1,1.4s0.3,1.1,0.3,1.7s-0.1,1.2-0.3,1.7c-0.2,0.5-0.5,0.9-0.9,1.3s-0.8,0.8-1.3,1.1
		c-0.5,0.3-0.9,0.7-1.4,1c-0.4,0.3-0.8,0.5-1.2,0.8s-0.7,0.5-1,0.8s-0.5,0.6-0.7,0.9s-0.3,0.7-0.3,1h7.1v2.8H382V406.8z"/>
	<path id="XMLID_264_" class="st0" d="M400.3,405.9h-6.8v-2.7l6.6-9.5h3v9.5h2.3v2.7h-2.3v3.7h-2.9L400.3,405.9L400.3,405.9z
		 M400.3,403.2v-5.1l-3.6,5.1H400.3z"/>
	<path id="XMLID_267_" class="st0" d="M412.4,396.9h2.9v1.6c0.4-0.5,0.9-0.9,1.5-1.2c0.6-0.3,1.3-0.4,2.1-0.4c1,0,1.8,0.2,2.5,0.6
		s1.2,0.9,1.6,1.6c0.4-0.7,1-1.2,1.7-1.6s1.5-0.6,2.4-0.6c1.7,0,3,0.5,3.9,1.4s1.3,2.2,1.3,3.8v7.5h-3v-7.2c0-0.9-0.2-1.6-0.7-2.1
		s-1.1-0.8-2.1-0.8c-0.8,0-1.5,0.3-2,0.8s-0.8,1.3-0.8,2.4v6.9h-3v-7.3c0-0.9-0.2-1.6-0.7-2.1c-0.4-0.5-1.1-0.8-2-0.8
		c-0.8,0-1.5,0.3-2,0.8s-0.8,1.4-0.8,2.5v6.9h-2.9v-12.7L412.4,396.9L412.4,396.9z"/>
	<path id="XMLID_269_" class="st0" d="M440.2,409.6c-0.9,0-1.8-0.2-2.6-0.5c-0.8-0.3-1.5-0.8-2.1-1.4s-1.1-1.3-1.4-2
		c-0.3-0.8-0.5-1.6-0.5-2.5s0.2-1.7,0.5-2.5s0.8-1.4,1.4-2s1.3-1,2.1-1.4c0.8-0.3,1.7-0.5,2.6-0.5s1.8,0.2,2.6,0.5
		c0.8,0.3,1.5,0.8,2.1,1.4s1.1,1.3,1.4,2c0.3,0.8,0.5,1.6,0.5,2.5s-0.2,1.7-0.5,2.5s-0.8,1.4-1.4,2s-1.3,1-2.1,1.4
		C441.9,409.4,441.1,409.6,440.2,409.6z M440.2,406.8c0.5,0,1-0.1,1.5-0.3c0.5-0.2,0.8-0.4,1.2-0.8c0.3-0.3,0.6-0.7,0.8-1.1
		c0.2-0.4,0.3-0.9,0.3-1.4s-0.1-1-0.3-1.4c-0.2-0.4-0.4-0.8-0.8-1.1c-0.4-0.3-0.7-0.6-1.2-0.8c-0.4-0.2-0.9-0.3-1.5-0.3
		s-1,0.1-1.5,0.3c-0.5,0.2-0.8,0.4-1.2,0.8s-0.6,0.7-0.8,1.1c-0.2,0.4-0.3,0.9-0.3,1.4s0.1,1,0.3,1.4c0.2,0.4,0.4,0.8,0.8,1.1
		c0.3,0.3,0.7,0.6,1.2,0.8S439.6,406.8,440.2,406.8z"/>
	<path id="XMLID_272_" class="st0" d="M448,396.9h2.9v1.7c0.4-0.5,0.9-1,1.6-1.3s1.4-0.5,2.2-0.5c1.6,0,2.8,0.5,3.7,1.4
		s1.3,2.2,1.3,3.9v7.5h-3v-7c0-1-0.2-1.7-0.7-2.3c-0.5-0.6-1.2-0.8-2.1-0.8c-0.8,0-1.5,0.3-2.1,0.9s-0.9,1.4-0.9,2.5v6.7H448V396.9z
		"/>
	<path id="XMLID_274_" class="st0" d="M461,396.9h2.2V395l2.9-2v3.9h2.6v2.6h-2.6v4.7c0,0.5,0,1,0.1,1.3s0.2,0.6,0.4,0.8
		c0.2,0.2,0.4,0.3,0.8,0.4c0.3,0.1,0.8,0.1,1.4,0.1v2.8h-0.4c-1,0-1.8-0.1-2.5-0.3c-0.7-0.2-1.2-0.5-1.6-0.9s-0.7-1-0.8-1.6
		c-0.2-0.7-0.2-1.5-0.2-2.5v-4.8H461V396.9z"/>
	<path id="XMLID_276_" class="st0" d="M470,393.5h2.9v5.1c0.4-0.5,1-1,1.6-1.3s1.4-0.5,2.2-0.5c1.6,0,2.8,0.5,3.7,1.4
		s1.3,2.2,1.3,3.9v7.5h-3v-7c0-1-0.2-1.7-0.7-2.3c-0.5-0.6-1.2-0.8-2.1-0.8c-0.4,0-0.8,0.1-1.1,0.2c-0.4,0.1-0.7,0.4-0.9,0.6
		c-0.3,0.3-0.5,0.6-0.6,1.1s-0.2,0.9-0.2,1.4v6.8H470V393.5z"/>
	<path id="XMLID_278_" class="st0" d="M488.2,409.6c-1.4,0-2.6-0.3-3.5-0.8s-1.6-1.3-2.1-2.3l2.7-1.2c0.3,0.6,0.7,1,1.2,1.3
		s1.1,0.4,1.8,0.4c0.7,0,1.3-0.1,1.6-0.4c0.3-0.3,0.5-0.6,0.5-1c0-0.2-0.1-0.4-0.2-0.5c-0.2-0.1-0.4-0.3-0.6-0.4
		c-0.3-0.1-0.6-0.2-0.9-0.3c-0.4-0.1-0.7-0.1-1.1-0.2c-0.5-0.1-1.1-0.2-1.6-0.4c-0.5-0.2-1-0.4-1.4-0.6s-0.8-0.6-1-1
		c-0.3-0.4-0.4-0.9-0.4-1.6c0-0.5,0.1-0.9,0.4-1.4c0.2-0.4,0.6-0.8,1-1.2c0.4-0.3,1-0.6,1.6-0.8c0.6-0.2,1.3-0.3,2-0.3
		c1.3,0,2.3,0.2,3.2,0.7s1.5,1.1,2,1.9l-2.5,1.2c-0.3-0.4-0.6-0.8-1.1-1s-1-0.4-1.6-0.4c-0.7,0-1.2,0.1-1.5,0.4s-0.5,0.6-0.5,0.9
		c0,0.4,0.2,0.7,0.7,0.9c0.5,0.2,1.2,0.4,2.2,0.5c0.5,0.1,1,0.2,1.6,0.4c0.5,0.2,1,0.4,1.4,0.6s0.8,0.6,1,1s0.4,0.9,0.4,1.6
		c0,0.4-0.1,0.9-0.3,1.3c-0.2,0.5-0.5,0.9-0.9,1.3s-1,0.7-1.6,1C489.9,409.5,489.1,409.6,488.2,409.6z"/>
	<path id="XMLID_280_" class="st0" d="M344.6,432.7c-1.1,0-2.2-0.2-3.2-0.6s-1.8-1-2.6-1.7c-0.7-0.7-1.3-1.6-1.7-2.6s-0.6-2-0.6-3.2
		c0-1.1,0.2-2.2,0.6-3.2s1-1.8,1.7-2.6c0.7-0.7,1.6-1.3,2.6-1.7c1-0.4,2-0.6,3.2-0.6s2.4,0.2,3.3,0.6c1,0.4,1.8,1,2.5,1.6
		s1.2,1.5,1.6,2.3c0.4,0.9,0.6,1.8,0.6,2.7c0,0.6-0.1,1.2-0.3,1.8c-0.2,0.5-0.4,1-0.7,1.5c-0.3,0.4-0.7,0.8-1.2,1s-1,0.4-1.5,0.4
		c-0.6,0-1.2-0.1-1.6-0.3c-0.4-0.2-0.8-0.5-1-0.8c-0.3,0.4-0.6,0.7-1.1,0.9c-0.5,0.2-1,0.3-1.6,0.3c-0.4,0-0.9-0.1-1.3-0.3
		c-0.4-0.2-0.8-0.4-1.1-0.7c-0.3-0.3-0.6-0.7-0.7-1.2c-0.2-0.5-0.2-1-0.2-1.7c0.1-0.7,0.2-1.2,0.5-1.7s0.6-0.9,1-1.2
		c0.4-0.3,0.8-0.6,1.2-0.7c0.4-0.2,0.8-0.2,1.2-0.2c0.5,0,0.9,0.1,1.2,0.2c0.4,0.1,0.6,0.3,0.9,0.6c0-0.2,0-0.3,0-0.4s0-0.2,0-0.2
		c0-0.1,0-0.1,0-0.1h2.3l-0.4,3.7c-0.1,0.5,0,0.8,0.1,1.1c0.1,0.3,0.4,0.4,0.8,0.4c0.3,0,0.6-0.2,0.9-0.6c0.2-0.4,0.3-1,0.3-1.6
		s-0.1-1.2-0.4-1.8c-0.3-0.6-0.6-1.1-1.1-1.6s-1.1-0.9-1.8-1.1c-0.7-0.3-1.5-0.4-2.4-0.4c-0.8,0-1.6,0.2-2.3,0.5
		c-0.7,0.3-1.3,0.7-1.8,1.3c-0.5,0.5-0.9,1.2-1.2,1.9c-0.3,0.7-0.5,1.5-0.5,2.3s0.2,1.6,0.5,2.3c0.3,0.7,0.7,1.3,1.2,1.9
		s1.1,1,1.8,1.3c0.7,0.3,1.5,0.5,2.3,0.5c0.9,0,1.7-0.2,2.4-0.5c0.7-0.3,1.4-0.8,1.9-1.4l1.8,1.5c-0.7,0.8-1.6,1.5-2.7,2
		C346.9,432.5,345.8,432.7,344.6,432.7z M344.1,426.1c0.5,0,0.9-0.2,1.3-0.5c0.3-0.3,0.5-0.7,0.6-1.2s-0.1-0.9-0.3-1.2
		c-0.3-0.4-0.7-0.6-1.2-0.6s-0.9,0.2-1.3,0.5s-0.6,0.8-0.6,1.3c-0.1,0.5,0,0.9,0.3,1.2C343.3,425.9,343.7,426.1,344.1,426.1z"/>
	<path id="XMLID_283_" class="st0" d="M364.8,430.1c-0.9,0-1.6-0.1-2.3-0.4c-0.7-0.2-1.2-0.6-1.7-1s-0.8-1-1-1.6s-0.4-1.3-0.4-2
		v-5.7c0-0.7,0.1-1.4,0.4-2s0.6-1.2,1.1-1.6c0.5-0.5,1-0.8,1.7-1.1c0.7-0.3,1.4-0.4,2.2-0.4c0.8,0,1.6,0.1,2.2,0.4
		c0.7,0.3,1.2,0.6,1.7,1.1s0.8,1,1.1,1.6c0.3,0.6,0.4,1.3,0.4,2v5.7c0,0.8-0.1,1.4-0.4,2.1c-0.2,0.6-0.6,1.1-1,1.6
		c-0.5,0.4-1,0.8-1.7,1C366.4,429.9,365.6,430.1,364.8,430.1z M364.8,427.1c0.8,0,1.4-0.2,1.8-0.7c0.4-0.4,0.6-1,0.6-1.6v-5.4
		c0-0.7-0.2-1.3-0.6-1.7s-1-0.6-1.8-0.6s-1.4,0.2-1.8,0.7s-0.6,1-0.6,1.7v5.4c0,0.7,0.2,1.2,0.6,1.6
		C363.4,426.9,364,427.1,364.8,427.1z"/>
	<path id="XMLID_286_" class="st0" d="M385,414.2h3.7L375.1,430h-3.7L385,414.2z M371.6,417.9c0-0.5,0.1-1,0.3-1.4
		c0.2-0.4,0.5-0.8,0.8-1.2c0.4-0.3,0.8-0.6,1.2-0.8c0.5-0.2,1-0.3,1.5-0.3s1,0.1,1.5,0.3c0.5,0.2,0.9,0.5,1.2,0.8
		c0.3,0.3,0.6,0.7,0.8,1.2c0.2,0.4,0.3,0.9,0.3,1.4s-0.1,1-0.3,1.4c-0.2,0.4-0.5,0.8-0.8,1.2c-0.3,0.3-0.8,0.6-1.2,0.8
		c-0.5,0.2-1,0.3-1.5,0.3s-1-0.1-1.5-0.3s-0.9-0.5-1.2-0.8c-0.4-0.3-0.6-0.7-0.8-1.2S371.6,418.4,371.6,417.9z M374.1,417.9
		c0,0.3,0.1,0.6,0.4,0.9c0.3,0.2,0.6,0.4,1,0.4s0.7-0.1,1-0.4c0.3-0.2,0.4-0.5,0.4-0.9c0-0.3-0.1-0.6-0.4-0.8
		c-0.3-0.2-0.6-0.4-1-0.4s-0.7,0.1-1,0.4S374.1,417.5,374.1,417.9z M380.8,426.2c0-0.5,0.1-1,0.3-1.5s0.5-0.9,0.8-1.2
		c0.4-0.3,0.8-0.6,1.2-0.8c0.5-0.2,1-0.3,1.5-0.3s1,0.1,1.5,0.3c0.5,0.2,0.9,0.5,1.2,0.8c0.3,0.3,0.6,0.8,0.8,1.2
		c0.2,0.5,0.3,1,0.3,1.5s-0.1,1-0.3,1.5c-0.2,0.5-0.5,0.9-0.8,1.2c-0.3,0.4-0.8,0.6-1.2,0.8c-0.5,0.2-1,0.3-1.5,0.3s-1-0.1-1.5-0.3
		s-0.9-0.5-1.2-0.8c-0.3-0.3-0.6-0.8-0.8-1.2C380.9,427.2,380.8,426.7,380.8,426.2z M383.3,426.2c0,0.4,0.1,0.7,0.4,1s0.6,0.4,1,0.4
		s0.7-0.1,1-0.4s0.4-0.6,0.4-1s-0.1-0.7-0.4-1s-0.6-0.4-1-0.4s-0.7,0.1-1,0.4S383.3,425.8,383.3,426.2z"/>
	<path id="XMLID_292_" class="st0" d="M394.8,414.3c0-0.5,0.2-1,0.5-1.3s0.8-0.5,1.3-0.5c0.6,0,1,0.2,1.4,0.5s0.5,0.8,0.5,1.3
		s-0.2,1-0.5,1.3s-0.8,0.5-1.4,0.5s-1-0.2-1.4-0.5C394.9,415.3,394.8,414.8,394.8,414.3z M395.1,417.4h2.9v12.7h-2.9V417.4z"/>
	<path id="XMLID_295_" class="st0" d="M399.8,417.4h2.9v1.7c0.4-0.5,0.9-1,1.6-1.3s1.4-0.5,2.2-0.5c1.6,0,2.8,0.5,3.7,1.4
		s1.3,2.2,1.3,3.9v7.4h-3v-7c0-1-0.2-1.7-0.7-2.3s-1.2-0.8-2.1-0.8c-0.8,0-1.5,0.3-2.1,0.9s-0.9,1.4-0.9,2.5v6.8h-2.9
		C399.8,430.1,399.8,417.4,399.8,417.4z"/>
	<path id="XMLID_297_" class="st0" d="M412.7,417.4h2.2v-1.9l2.9-2v3.9h2.6v2.6h-2.6v4.7c0,0.5,0,1,0.1,1.3s0.2,0.6,0.4,0.8
		c0.2,0.2,0.4,0.3,0.8,0.4c0.3,0.1,0.8,0.1,1.4,0.1v2.7H420c-1,0-1.8-0.1-2.5-0.3c-0.7-0.2-1.2-0.5-1.6-0.9s-0.7-1-0.8-1.6
		c-0.2-0.7-0.2-1.5-0.2-2.5v-4.8h-2.2L412.7,417.4L412.7,417.4z"/>
	<path id="XMLID_299_" class="st0" d="M428.1,430.1c-1,0-1.9-0.2-2.7-0.5c-0.8-0.3-1.5-0.8-2.1-1.3s-1-1.2-1.4-2
		c-0.3-0.8-0.5-1.6-0.5-2.5s0.2-1.7,0.5-2.5s0.8-1.5,1.4-2c0.6-0.6,1.3-1,2.1-1.4c0.8-0.3,1.7-0.5,2.6-0.5s1.8,0.2,2.6,0.5
		c0.8,0.3,1.5,0.7,2.1,1.3s1,1.2,1.4,1.9s0.5,1.6,0.5,2.4v1h-10.3c0.2,0.9,0.6,1.6,1.3,2.2c0.7,0.5,1.5,0.8,2.6,0.8
		c0.8,0,1.5-0.2,2.1-0.6s1.1-0.9,1.4-1.6l2.3,1.3c-0.5,1-1.3,1.9-2.3,2.5C430.7,429.8,429.5,430.1,428.1,430.1z M428,419.9
		c-0.9,0-1.6,0.2-2.3,0.6c-0.6,0.4-1.1,0.9-1.4,1.5h7.2c-0.2-0.7-0.6-1.2-1.3-1.6C429.7,420.1,428.9,419.9,428,419.9z"/>
	<path id="XMLID_302_" class="st0" d="M435.8,417.4h2.9v1.9c0.6-1.3,1.7-1.9,3.2-1.9c0.5,0,0.9,0.1,1.2,0.2c0.4,0.1,0.7,0.2,1,0.4
		l-1.1,2.8c-0.2-0.1-0.5-0.3-0.7-0.4c-0.3-0.1-0.6-0.1-1-0.1c-0.9,0-1.5,0.2-1.9,0.7s-0.7,1.3-0.7,2.4v6.8h-2.9V417.4z"/>
	<path id="XMLID_304_" class="st0" d="M451.4,430.1c-1,0-1.9-0.2-2.7-0.5c-0.8-0.3-1.5-0.8-2.1-1.3s-1-1.2-1.4-2
		c-0.3-0.8-0.5-1.6-0.5-2.5s0.2-1.7,0.5-2.5s0.8-1.5,1.4-2c0.6-0.6,1.3-1,2.1-1.4c0.8-0.3,1.7-0.5,2.6-0.5s1.8,0.2,2.6,0.5
		c0.8,0.3,1.5,0.7,2.1,1.3s1,1.2,1.4,1.9s0.5,1.6,0.5,2.4v1h-10.3c0.2,0.9,0.6,1.6,1.3,2.2c0.7,0.5,1.5,0.8,2.6,0.8
		c0.8,0,1.5-0.2,2.1-0.6s1.1-0.9,1.4-1.6l2.4,1.4c-0.5,1-1.3,1.9-2.3,2.5C454,429.8,452.8,430.1,451.4,430.1z M451.3,419.9
		c-0.9,0-1.6,0.2-2.3,0.6c-0.6,0.4-1.1,0.9-1.4,1.5h7.2c-0.2-0.7-0.6-1.2-1.3-1.6C453,420.1,452.2,419.9,451.3,419.9z"/>
	<path id="XMLID_307_" class="st0" d="M463.9,430.1c-1.4,0-2.6-0.3-3.5-0.8s-1.6-1.3-2.1-2.3l2.7-1.2c0.3,0.6,0.7,1,1.2,1.3
		s1.1,0.4,1.8,0.4c0.7,0,1.3-0.1,1.6-0.4c0.3-0.3,0.5-0.6,0.5-1c0-0.2-0.1-0.4-0.2-0.5c-0.2-0.1-0.4-0.3-0.6-0.4
		c-0.3-0.1-0.6-0.2-0.9-0.3c-0.4-0.1-0.7-0.1-1.1-0.2c-0.5-0.1-1.1-0.2-1.6-0.4c-0.5-0.2-1-0.4-1.4-0.6s-0.8-0.6-1-1
		c-0.3-0.4-0.4-0.9-0.4-1.6c0-0.5,0.1-0.9,0.4-1.4c0.2-0.4,0.6-0.8,1-1.2c0.4-0.3,1-0.6,1.6-0.8s1.3-0.3,2-0.3
		c1.3,0,2.3,0.2,3.2,0.7s1.5,1.1,2,1.9l-2.5,1.2c-0.3-0.4-0.6-0.8-1.1-1s-1-0.4-1.6-0.4c-0.7,0-1.2,0.1-1.5,0.4s-0.5,0.6-0.5,0.9
		c0,0.4,0.2,0.7,0.7,0.9s1.2,0.4,2.2,0.5c0.5,0.1,1,0.2,1.6,0.4c0.5,0.2,1,0.4,1.4,0.6s0.8,0.6,1,1s0.4,0.9,0.4,1.6
		c0,0.4-0.1,0.9-0.3,1.3c-0.2,0.5-0.5,0.9-0.9,1.3s-1,0.7-1.6,1C465.6,429.9,464.8,430.1,463.9,430.1z"/>
	<path id="XMLID_309_" class="st0" d="M469.9,417.4h2.2v-1.9l2.9-2v3.9h2.6v2.6H475v4.7c0,0.5,0,1,0.1,1.3s0.2,0.6,0.4,0.8
		c0.2,0.2,0.4,0.3,0.8,0.4c0.3,0.1,0.8,0.1,1.4,0.1v2.7h-0.4c-1,0-1.8-0.1-2.5-0.3c-0.7-0.2-1.2-0.5-1.6-0.9s-0.7-1-0.8-1.6
		c-0.2-0.7-0.2-1.5-0.2-2.5v-4.8H470v-2.5L469.9,417.4L469.9,417.4z"/>
</g>
<path id="XMLID_114_" class="st0" d="M-13.7,388c4.1-29.4,37.3-46.5,66.3-44.3l189.9,14.7l-3.8,48.8c-4.1,29.4-37.3,46.5-66.3,44.3
	l-189.8-14.7L-13.7,388z"/>
<path id="XMLID_113_" class="st1" d="M-13.7,388c4.1-29.4,37.3-46.5,66.3-44.3l189.9,14.7l-3.8,48.8c-4.1,29.4-37.3,46.5-66.3,44.3
	l-189.8-14.7L-13.7,388z"/>
<g id="XMLID_111_">
	
		<linearGradient id="XMLID_3_" gradientUnits="userSpaceOnUse" x1="-7.4488" y1="402.3535" x2="232.3512" y2="402.3535" gradientTransform="matrix(1 0 0 -1 0 800)">
		<stop  offset="0" style="stop-color:#0A529E"/>
		<stop  offset="1" style="stop-color:#0C6DB6"/>
	</linearGradient>
	<path id="XMLID_112_" class="st3" d="M-7.4,397.8c1.7-29.6,31.8-49.2,59.4-49.2h180.4v48.8c-1.7,29.6-31.8,49.2-59.4,49.2H-7.4
		V397.8z"/>
</g>
<path id="XMLID_109_" class="st0" d="M86.7,368.9H90l6.8,10.7v-10.7h2.9v15.7h-3.1l-7-11.1v11.1h-2.9L86.7,368.9L86.7,368.9z"/>
<path id="XMLID_106_" class="st0" d="M107.6,384.6c-1,0-1.8-0.1-2.7-0.5c-0.8-0.3-1.5-0.8-2.1-1.4c-0.6-0.6-1-1.3-1.4-2
	c-0.3-0.8-0.5-1.6-0.5-2.4c0-0.9,0.1-1.7,0.5-2.5s0.8-1.5,1.4-2c0.6-0.6,1.3-1,2.1-1.4c0.8-0.3,1.6-0.5,2.5-0.5s1.8,0.1,2.5,0.5
	c0.8,0.3,1.5,0.7,2.1,1.3s1,1.2,1.4,2s0.5,1.5,0.5,2.4v1h-10.1c0.2,0.9,0.7,1.6,1.3,2.2c0.7,0.6,1.5,0.8,2.5,0.8
	c0.8,0,1.5-0.2,2.1-0.6c0.6-0.3,1-0.9,1.4-1.6l2.4,1.4c-0.6,1-1.3,1.8-2.3,2.4C110.2,384.3,109,384.6,107.6,384.6z M107.5,374.5
	c-0.9,0-1.6,0.2-2.3,0.6c-0.7,0.3-1,0.9-1.4,1.5h7.1c-0.2-0.7-0.6-1.3-1.3-1.6C109.2,374.7,108.4,374.5,107.5,374.5z"/>
<path id="XMLID_104_" class="st0" d="M114.9,372h3l2.8,8.6l3.1-8.6h2.9l3.1,8.6l2.9-8.6h3l-4.4,12.6h-2.8l-3.2-8.6l-3.2,8.6h-2.9
	L114.9,372z"/>
<path id="XMLID_102_" class="st0" d="M17,418.9c-2.1,0-3.8-0.3-5.2-1.2s-2.4-1.8-3.2-3.3l4-1.8c0.5,0.8,1,1.5,1.8,1.8
	c0.8,0.5,1.6,0.7,2.7,0.7c1,0,1.8-0.2,2.4-0.7s0.8-0.9,0.8-1.5c0-0.3-0.1-0.6-0.3-0.8c-0.2-0.2-0.6-0.3-0.9-0.6
	c-0.3-0.1-0.8-0.2-1.4-0.3c-0.6-0.1-1-0.2-1.6-0.3c-0.8-0.1-1.6-0.3-2.4-0.6s-1.5-0.6-2.1-0.9s-1.2-0.9-1.5-1.5
	c-0.3-0.6-0.6-1.4-0.6-2.3c0-0.7,0.2-1.4,0.6-2.1s0.8-1.3,1.5-1.7c0.7-0.5,1.4-0.9,2.3-1.2c0.9-0.2,2-0.5,3-0.5c1.8,0,3.5,0.3,4.7,1
	c1.3,0.7,2.2,1.6,3,2.9l-3.7,1.7c-0.3-0.6-0.9-1.2-1.6-1.5c-0.7-0.3-1.5-0.6-2.4-0.6c-1,0-1.7,0.2-2.3,0.6c-0.5,0.3-0.7,0.8-0.7,1.4
	s0.3,1,1,1.3c0.7,0.2,1.8,0.6,3.2,0.8c0.8,0.1,1.5,0.3,2.3,0.6c0.8,0.2,1.5,0.6,2.1,0.9c0.7,0.3,1.2,0.9,1.5,1.5s0.6,1.4,0.6,2.3
	c0,0.6-0.1,1.3-0.5,2c-0.3,0.7-0.8,1.3-1.4,1.8c-0.6,0.6-1.4,1-2.4,1.4C19.6,418.7,18.4,418.9,17,418.9z"/>
<path id="XMLID_99_" class="st0" d="M37.1,418.9c-1.3,0-2.4-0.2-3.6-0.7c-1-0.5-2-1-2.7-2v11.2h-4.3v-27.3h4.3v2.8
	c0.7-0.8,1.5-1.5,2.5-2.1c1-0.5,2.2-0.8,3.5-0.8c1.2,0,2.3,0.2,3.5,0.7c1.2,0.5,2.1,1,3,1.8s1.5,1.7,2.1,3c0.6,1.2,0.8,2.5,0.8,4
	s-0.2,2.8-0.8,3.9c-0.6,1.2-1.3,2.2-2.1,3c-0.9,0.8-1.8,1.4-3,1.8C39.2,418.8,38.1,418.9,37.1,418.9z M36.3,414.9
	c0.8,0,1.5-0.1,2.2-0.5c0.7-0.2,1.3-0.7,1.8-1.2c0.5-0.5,0.9-1,1.2-1.7s0.5-1.4,0.5-2.2c0-0.8-0.1-1.5-0.5-2.2
	c-0.2-0.7-0.7-1.3-1.2-1.7c-0.5-0.5-1.2-0.8-1.8-1.2c-0.7-0.2-1.4-0.5-2.2-0.5s-1.6,0.1-2.2,0.5c-0.7,0.2-1.3,0.7-1.7,1.2
	c-0.5,0.5-0.9,1-1.2,1.7c-0.2,0.7-0.5,1.4-0.5,2.1c0,0.8,0.1,1.5,0.5,2.2c0.2,0.7,0.7,1.3,1.2,1.7c0.5,0.5,1,0.9,1.7,1.2
	C34.8,414.8,35.5,414.9,36.3,414.9z"/>
<path id="XMLID_96_" class="st0" d="M57.3,418.9c-1.5,0-2.8-0.2-4-0.7c-1.3-0.5-2.3-1.2-3.1-2s-1.5-1.8-2.1-3
	c-0.5-1.2-0.7-2.3-0.7-3.7c0-1.3,0.2-2.5,0.8-3.7c0.5-1.2,1.2-2.2,2.1-3s2-1.5,3.1-2c1.2-0.5,2.4-0.7,3.8-0.7s2.7,0.2,3.8,0.7
	c1.2,0.5,2.2,1,3.1,1.8c0.8,0.8,1.5,1.7,2,2.9c0.5,1.2,0.7,2.3,0.7,3.6v1.5H51.5c0.3,1.3,0.9,2.4,2,3.2c1,0.8,2.3,1.3,3.8,1.3
	c1.3,0,2.3-0.3,3.2-0.9s1.6-1.4,2.1-2.4l3.6,2.1c-0.8,1.5-2,2.8-3.5,3.7C61.2,418.5,59.4,418.9,57.3,418.9z M57.1,403.9
	c-1.3,0-2.4,0.2-3.3,0.8s-1.6,1.4-2,2.3h10.6c-0.3-1-0.9-1.8-1.8-2.3C59.7,404.2,58.5,403.9,57.1,403.9z"/>
<path id="XMLID_94_" class="st0" d="M77.9,418.9c-1.4,0-2.7-0.2-3.8-0.7c-1.2-0.5-2.2-1.2-3.1-2s-1.6-1.8-2.1-3
	c-0.5-1.2-0.8-2.3-0.8-3.7c0-1.3,0.2-2.5,0.8-3.7c0.5-1.2,1.2-2.2,2.1-3c0.9-0.8,2-1.5,3.1-2c1.2-0.5,2.4-0.7,3.8-0.7
	c1,0,2.1,0.1,3,0.5c0.9,0.2,1.7,0.7,2.5,1.2c0.8,0.5,1.5,1.2,2.1,1.8c0.6,0.7,1,1.5,1.4,2.3l-3.9,1.5c-0.5-0.9-1-1.7-2-2.3
	s-2-0.8-3.1-0.8c-0.8,0-1.5,0.1-2.2,0.5c-0.7,0.2-1.3,0.7-1.7,1.2c-0.5,0.5-0.9,1-1.2,1.7s-0.5,1.4-0.5,2.1c0,0.7,0.1,1.4,0.5,2.1
	c0.2,0.7,0.7,1.3,1.2,1.7c0.5,0.5,1,0.8,1.7,1.2c0.7,0.2,1.4,0.5,2.2,0.5c1.3,0,2.3-0.3,3.1-0.9c0.9-0.6,1.5-1.4,2-2.3l3.9,1.6
	c-0.3,0.8-0.8,1.6-1.4,2.3c-0.6,0.7-1.3,1.3-2,1.8c-0.8,0.5-1.6,0.9-2.5,1.2C80,418.7,78.9,418.9,77.9,418.9z"/>
<path id="XMLID_91_" class="st0" d="M87.9,395.5c0-0.8,0.2-1.5,0.7-2s1.2-0.8,2-0.8c0.8,0,1.5,0.2,2,0.8c0.5,0.5,0.7,1.2,0.7,2
	s-0.2,1.5-0.7,2c-0.5,0.5-1.2,0.7-2,0.7c-0.9,0-1.5-0.2-2.1-0.7C88.1,397,87.9,396.3,87.9,395.5z M88.5,400.1h4.4v18.8h-4.4V400.1z"
	/>
<path id="XMLID_88_" class="st0" d="M103.9,418.9c-1.2,0-2.3-0.2-3.3-0.6c-1.2-0.5-2.1-1-3-1.8c-0.9-0.8-1.6-1.7-2.1-3
	c-0.6-1.2-0.8-2.5-0.8-3.9c0-1.5,0.2-2.9,0.8-4c0.6-1.2,1.3-2.2,2.1-3c0.8-0.8,1.8-1.4,3-1.8s2.3-0.7,3.5-0.7c1.3,0,2.4,0.2,3.5,0.7
	c1,0.5,2,1,2.7,1.8v-2.4h4.4v18.8h-4.4v-2.7c-0.7,0.8-1.6,1.5-2.7,2C106.4,418.7,105.2,418.9,103.9,418.9z M104.6,414.9
	c0.8,0,1.6-0.1,2.2-0.5c0.7-0.2,1.3-0.7,1.7-1.2c0.5-0.5,0.9-1,1.2-1.7c0.2-0.7,0.5-1.4,0.5-2.2c0-0.7-0.1-1.5-0.5-2.1
	c-0.2-0.7-0.7-1.3-1.2-1.7s-1-0.9-1.7-1.2c-0.7-0.2-1.4-0.5-2.2-0.5c-0.8,0-1.5,0.1-2.2,0.5c-0.7,0.2-1.3,0.7-1.8,1.2
	c-0.5,0.5-0.9,1-1.2,1.7c-0.2,0.7-0.5,1.4-0.5,2.2c0,0.8,0.1,1.5,0.5,2.2c0.2,0.7,0.7,1.3,1.2,1.7c0.5,0.5,1.2,0.9,1.8,1.2
	C103.1,414.8,103.8,414.9,104.6,414.9z"/>
<path id="XMLID_86_" class="st0" d="M116.9,395.2h4.4v23.7h-4.4V395.2z"/>
<path id="XMLID_83_" class="st0" d="M142,418.9c-1.3,0-2.4-0.2-3.6-0.7c-1-0.5-2-1-2.7-2v11.2h-4.3v-27.3h4.3v2.8
	c0.7-0.8,1.5-1.5,2.5-2.1c1-0.5,2.2-0.8,3.5-0.8c1.2,0,2.3,0.2,3.5,0.7c1.2,0.5,2.1,1,3,1.8s1.5,1.7,2.1,3c0.6,1.2,0.8,2.5,0.8,4
	s-0.2,2.8-0.8,3.9c-0.6,1.2-1.3,2.2-2.1,3c-0.9,0.8-1.8,1.4-3,1.8C144.1,418.8,143.1,418.9,142,418.9z M141.3,414.9
	c0.8,0,1.5-0.1,2.2-0.5c0.7-0.2,1.3-0.7,1.8-1.2c0.5-0.5,0.9-1,1.2-1.7s0.5-1.4,0.5-2.2c0-0.8-0.1-1.5-0.5-2.2
	c-0.2-0.7-0.7-1.3-1.2-1.7c-0.5-0.5-1.2-0.8-1.8-1.2c-0.7-0.2-1.4-0.5-2.2-0.5s-1.6,0.1-2.2,0.5c-0.7,0.2-1.3,0.7-1.7,1.2
	s-0.9,1-1.2,1.7c-0.2,0.7-0.5,1.4-0.5,2.1c0,0.8,0.1,1.5,0.5,2.2c0.2,0.7,0.7,1.3,1.2,1.7c0.5,0.5,1,0.9,1.7,1.2
	C139.7,414.8,140.5,414.9,141.3,414.9z"/>
<path id="XMLID_81_" class="st0" d="M152.9,400.1h4.3v2.8c0.9-1.8,2.4-2.8,4.8-2.8c0.7,0,1.3,0.1,1.8,0.2s1,0.3,1.5,0.6l-1.6,4.2
	c-0.3-0.2-0.7-0.3-1-0.6c-0.3-0.1-0.9-0.2-1.5-0.2c-1.3,0-2.2,0.3-2.9,1s-0.9,1.8-0.9,3.5v10h-4.4v-18.7H152.9z"/>
<path id="XMLID_78_" class="st0" d="M166.2,395.5c0-0.8,0.2-1.5,0.7-2c0.5-0.5,1.2-0.8,2-0.8s1.5,0.2,2,0.8c0.5,0.5,0.7,1.2,0.7,2
	s-0.2,1.5-0.7,2c-0.5,0.5-1.2,0.7-2,0.7c-0.9,0-1.5-0.2-2.1-0.7C166.4,397,166.2,396.3,166.2,395.5z M166.8,400.1h4.4v18.8h-4.4
	V400.1z"/>
<path id="XMLID_76_" class="st0" d="M182.8,418.9c-1.4,0-2.7-0.2-3.8-0.7c-1.2-0.5-2.2-1.2-3.1-2c-0.9-0.8-1.6-1.8-2.1-3
	s-0.8-2.3-0.8-3.7c0-1.3,0.2-2.5,0.8-3.7c0.5-1.2,1.2-2.2,2.1-3c0.9-0.8,2-1.5,3.1-2c1.2-0.5,2.4-0.7,3.8-0.7c1,0,2.1,0.1,3,0.5
	c0.9,0.2,1.7,0.7,2.5,1.2s1.5,1.2,2.1,1.8c0.6,0.7,1,1.5,1.4,2.3l-3.9,1.5c-0.5-0.9-1-1.7-2-2.3s-2-0.8-3.1-0.8
	c-0.8,0-1.5,0.1-2.2,0.5c-0.7,0.2-1.3,0.7-1.7,1.2s-0.9,1-1.2,1.7s-0.5,1.4-0.5,2.1c0,0.7,0.1,1.4,0.5,2.1c0.2,0.7,0.7,1.3,1.2,1.7
	s1,0.8,1.7,1.2c0.7,0.2,1.4,0.5,2.2,0.5c1.3,0,2.3-0.3,3.1-0.9c0.9-0.6,1.5-1.4,2-2.3l3.9,1.6c-0.3,0.8-0.8,1.6-1.4,2.3
	c-0.6,0.7-1.3,1.3-2,1.8c-0.8,0.5-1.6,0.9-2.5,1.2C184.9,418.7,183.8,418.9,182.8,418.9z"/>
<path id="XMLID_71_" class="st0" d="M202.7,418.9c-1.5,0-2.8-0.2-4-0.7s-2.3-1.2-3.1-2c-0.9-0.8-1.5-1.8-2.1-3
	c-0.5-1.2-0.7-2.3-0.7-3.7c0-1.3,0.2-2.5,0.8-3.7c0.5-1.2,1.2-2.2,2.1-3s2-1.5,3.1-2c1.2-0.5,2.4-0.7,3.8-0.7c1.4,0,2.7,0.2,3.8,0.7
	c1.2,0.5,2.2,1,3.1,1.8c0.8,0.8,1.5,1.7,2,2.9s0.7,2.3,0.7,3.6v1.5H197c0.3,1.3,0.9,2.4,2,3.2c1,0.8,2.3,1.3,3.8,1.3
	c1.3,0,2.3-0.3,3.2-0.9s1.6-1.4,2.1-2.4l3.6,2.1c-0.8,1.5-2,2.8-3.5,3.7C206.6,418.5,204.8,418.9,202.7,418.9z M202.5,403.9
	c-1.3,0-2.4,0.2-3.3,0.8c-0.9,0.6-1.6,1.4-2,2.3h10.6c-0.3-1-0.9-1.8-1.8-2.3C205.1,404.2,203.9,403.9,202.5,403.9z"/>
<g id="XMLID_20_">
</g>
</svg>
