<?xml version="1.0" encoding="utf-8"?>
<!-- Generator: Adobe Illustrator 19.0.0, SVG Export Plug-In . SVG Version: 6.00 Build 0)  -->
<svg version="1.1" id="Layer_1" xmlns="http://www.w3.org/2000/svg" xmlns:xlink="http://www.w3.org/1999/xlink" x="0px" y="0px"
	 viewBox="0 0 612 143" style="enable-background:new 0 0 612 143;" xml:space="preserve">
<style type="text/css">
	.st0{fill:#010101;}
</style>
<g id="XMLID_15_">
	<path id="XMLID_16_" class="st0" d="M47.9,50.3l12.7,16l-9.5,7.4L40.2,56.5L29.4,73.7l-9.5-7.4l12.7-16l-18.3-4.7L18,34l17.4,6.9
		l-1.3-20.5h12.2l-1.3,20.5L62.4,34l3.7,11.6L47.9,50.3z"/>
	<path id="XMLID_18_" class="st0" d="M132.5,33.5h-21.9v79H95.9v-79H74.1V20.4h36.6h21.9V33.5z"/>
	<path id="XMLID_20_" class="st0" d="M199.2,114.4l-9.5-11.3c-3.2,3.7-6.8,6.5-10.9,8.3c-4,1.8-8.7,2.7-13.9,2.7
		c-8.1,0-14.3-2-18.8-6c-4.5-4-6.7-9.7-6.7-17.1c0-4.4,0.9-8.3,2.7-11.6c1.8-3.3,4.7-6.6,8.8-9.9l6.2-5.1l-3.6-4.2
		c-3-3.6-5-6.9-6.2-9.9c-1.2-2.9-1.8-6.2-1.8-9.9c0-6.8,2.1-12.1,6.3-15.8c4.2-3.8,10.1-5.7,17.7-5.7c7.5,0,13.2,1.8,17.3,5.4
		c4.1,3.6,6.1,8.7,6.1,15.3c0,4.2-1,7.8-2.9,11.1c-2,3.2-5.6,7-10.8,11.3l-4.1,3.3l13,15.4l6.7-15.9h14l-10.3,23.5l-1.4,3.2
		l12.1,14.4L199.2,114.4z M181.4,93.2l-16.5-19.7l-4.1,3.3c-2.4,1.9-4,3.7-5,5.5c-0.9,1.8-1.4,4-1.4,6.5c0,8.1,4,12.1,12,12.1
		C172.6,101,177.6,98.4,181.4,93.2z M167.3,56l4.3-3.4c3.1-2.5,5.1-4.6,6.2-6.3c1.1-1.7,1.6-3.5,1.6-5.7c0-6.3-3.3-9.4-9.9-9.4
		c-6.5,0-9.8,3.2-9.8,9.7c0,2.3,0.5,4.4,1.4,6.3c0.9,1.9,2.8,4.5,5.5,7.8L167.3,56z"/>
	<path id="XMLID_24_" class="st0" d="M226.8,101.9c-7-8-10.4-19.2-10.4-33.6c0-10.1,1.6-18.9,4.8-26.3c3.2-7.5,7.7-13.2,13.6-17.2
		c5.9-4,12.8-6,20.8-6c4.3,0,8.5,0.6,12.6,1.8c4.1,1.2,7.7,2.9,10.9,5.1l-4.7,11.2c-6.8-3.3-13.1-5-18.9-5c-7.5,0-13.4,3.1-17.5,9.2
		c-4.2,6.1-6.2,14.8-6.2,25.9c0,22.2,8.4,33.3,25.3,33.3c6.4,0,12.4-1.5,18.1-4.5l4.8,10.9c-2.5,2.1-5.9,3.8-10,5
		c-4.2,1.2-8.7,1.8-13.6,1.8C243.5,113.8,233.7,109.9,226.8,101.9z"/>
	<path id="XMLID_26_" class="st0" d="M355.4,47.5c4.3,3.7,6.5,8.9,6.5,15.6v49.3h-12.7v-9.7c-4,7.3-10.4,10.9-19.3,10.9
		c-6.2,0-11-1.8-14.4-5.3c-3.4-3.6-5.1-8.6-5.1-15.1c0-8.2,3-14.2,8.9-18.1c5.9-3.8,15.4-5.8,28.4-6v-4.4c0-6.7-4.2-10-12.7-10
		c-5.3,0-10.3,1.2-15.1,3.6l-3.6-11.1c6.7-3.6,13.7-5.3,21.1-5.3C345,41.9,351.1,43.7,355.4,47.5z M347.5,94.5V79.1
		c-8.1,0.1-14.1,1.2-17.8,3.3c-3.7,2.1-5.6,5.4-5.6,9.8c0,6.2,3.1,9.3,9.3,9.3C338.8,101.5,343.5,99.2,347.5,94.5z"/>
	<path id="XMLID_29_" class="st0" d="M427.5,51.4c4.2,6.3,6.2,15.2,6.2,26.6s-2.1,20.3-6.4,26.6c-4.2,6.3-10.2,9.4-17.8,9.4
		c-6.7,0-12-2.4-15.8-7.1v31.9h-14.5V43.4H392v9.7c4.2-7.5,10.2-11.2,18.1-11.2C417.5,41.9,423.4,45,427.5,51.4z M418.9,78.5
		c0-15.4-4.5-23.1-13.3-23.1c-2.3,0-4.4,0.5-6.2,1.5c-1.9,1-3.7,2.5-5.5,4.6v33.7c1.7,1.9,3.6,3.3,5.7,4.4c2.1,1.1,4.3,1.6,6.6,1.6
		C414.6,101.1,418.9,93.6,418.9,78.5z"/>
	<path id="XMLID_32_" class="st0" d="M496.2,51.4c4.2,6.3,6.2,15.2,6.2,26.6s-2.1,20.3-6.4,26.6c-4.2,6.3-10.2,9.4-17.8,9.4
		c-6.7,0-12-2.4-15.8-7.1v31.9H448V43.4h12.7v9.7c4.2-7.5,10.2-11.2,18.1-11.2C486.2,41.9,492,45,496.2,51.4z M487.5,78.5
		c0-15.4-4.5-23.1-13.3-23.1c-2.3,0-4.4,0.5-6.2,1.5c-1.9,1-3.7,2.5-5.5,4.6v33.7c1.7,1.9,3.6,3.3,5.7,4.4c2.1,1.1,4.3,1.6,6.6,1.6
		C483.3,101.1,487.5,93.6,487.5,78.5z"/>
	<path id="XMLID_35_" class="st0" d="M516.4,96.6v-82h14.5v79.1c0,2.4,0.5,4.1,1.4,5.1c0.9,1.1,2.4,1.6,4.4,1.6
		c1.3,0,2.7-0.1,4.2-0.4l1,12.1c-2.9,0.8-5.9,1.1-9.2,1.1C521.8,113.2,516.4,107.7,516.4,96.6z"/>
	<path id="XMLID_37_" class="st0" d="M603,43.4l-20.6,66.5c-2.3,7.5-6,13.6-11.2,18.5c-5.2,4.9-12.2,8.8-21,11.9l-4.8-12.2
		c5.7-2.1,10.2-4.3,13.5-6.6c3.3-2.3,5.9-5,7.9-8.1l-21.6-69.9H560l14.2,53.7l14-53.7H603z"/>
</g>
</svg>
