<?xml version="1.0" encoding="utf-8"?>
<!-- Generator: Adobe Illustrator 19.0.0, SVG Export Plug-In . SVG Version: 6.00 Build 0)  -->
<svg version="1.1" id="Layer_1" xmlns="http://www.w3.org/2000/svg" xmlns:xlink="http://www.w3.org/1999/xlink" x="0px" y="0px"
	 viewBox="-11 339 565 116" style="enable-background:new -11 339 565 116;" xml:space="preserve">
<style type="text/css">
	.st0{fill:#FFFFFF;}
	.st1{fill:none;stroke:#2BACE2;stroke-width:0.5256;stroke-miterlimit:10;}
	.st2{fill:url(#XMLID_21_);}
	.st3{fill:url(#XMLID_25_);}
	.st4{fill:url(#XMLID_28_);}
	.st5{fill:url(#XMLID_30_);}
</style>
<g id="XMLID_172_">
</g>
<g id="XMLID_173_">
</g>
<g id="XMLID_174_">
</g>
<g id="XMLID_175_">
</g>
<g id="XMLID_176_">
</g>
<g id="XMLID_177_">
</g>
<path id="XMLID_100_" class="st0" d="M-2.1,388c4.1-29.4,37.2-46.5,66.3-44.3L254,358.4l-3.8,48.8c-4.1,29.4-37.3,46.5-66.3,44.3
	L-5.9,436.8L-2.1,388z"/>
<path id="XMLID_98_" class="st1" d="M-2.1,388c4.1-29.4,37.2-46.5,66.3-44.3L254,358.4l-3.8,48.8c-4.1,29.4-37.3,46.5-66.3,44.3
	L-5.9,436.8L-2.1,388z"/>
<linearGradient id="XMLID_21_" gradientUnits="userSpaceOnUse" x1="4.1627" y1="393.5425" x2="243.9627" y2="393.5425" gradientTransform="matrix(1 0 0 1 0 4)">
	<stop  offset="0" style="stop-color:#0A529E"/>
	<stop  offset="1" style="stop-color:#0C6DB6"/>
</linearGradient>
<path id="XMLID_97_" class="st2" d="M4.2,397.8c1.7-29.7,31.8-49.3,59.4-49.3H244v48.9c-1.7,29.6-31.8,49.2-59.4,49.2H4.2V397.8z"/>
<g id="XMLID_52_">
	<path id="XMLID_95_" class="st0" d="M100.8,364.5h13.8v4.2h-9.5v5.4h9.5v4.2h-9.5v5.5h9.5v4.2h-13.8V364.5z"/>
	<path id="XMLID_93_" class="st0" d="M117.1,364.5h4.3l7.1,9.8l7.4-9.8h4.1v23.3h-4.3v-16.3l-7.2,9.7l-7-9.5v16.2h-4.3L117.1,364.5
		L117.1,364.5z"/>
	<path id="XMLID_92_" class="st0" d="M142.8,364.5h4.3v23.3h-4.3V364.5z"/>
	<path id="XMLID_90_" class="st0" d="M43.9,408.4c-0.8,0-1.6-0.1-2.3-0.4c-0.7-0.2-1.3-0.6-1.8-1.1s-0.9-1.1-1.2-1.8
		c-0.3-0.7-0.4-1.5-0.4-2.4v-10.1h2.9V403c0,0.4,0.1,0.7,0.2,1.1c0.1,0.4,0.3,0.6,0.6,0.9c0.2,0.2,0.5,0.4,0.9,0.6s0.7,0.2,1.1,0.2
		s0.8-0.1,1.1-0.2s0.6-0.3,0.9-0.6c0.3-0.2,0.5-0.5,0.6-0.9c0.1-0.3,0.2-0.7,0.2-1.1v-10.4h2.9v10.2c0,0.9-0.1,1.7-0.4,2.4
		c-0.3,0.7-0.7,1.3-1.2,1.8s-1.1,0.8-1.8,1.1C45.5,408.3,44.7,408.4,43.9,408.4z"/>
	<path id="XMLID_89_" class="st0" d="M58.4,408.4c-0.9,0-1.7-0.2-2.4-0.5s-1.3-0.7-1.8-1.3v7.6h-2.9v-18.5h2.9v1.9
		c0.4-0.6,1-1,1.7-1.4c0.7-0.3,1.5-0.5,2.4-0.5c0.8,0,1.6,0.1,2.3,0.4c0.8,0.3,1.4,0.7,2,1.2s1,1.2,1.4,2c0.4,0.8,0.5,1.7,0.5,2.7
		s-0.2,1.9-0.5,2.7c-0.4,0.8-0.8,1.5-1.4,2s-1.2,1-2,1.2S59.1,408.4,58.4,408.4z M57.9,405.7c0.5,0,1-0.1,1.5-0.3s0.9-0.5,1.2-0.8
		s0.6-0.7,0.8-1.2s0.3-0.9,0.3-1.5s-0.1-1-0.3-1.4s-0.5-0.8-0.8-1.2c-0.3-0.3-0.8-0.6-1.2-0.8c-0.5-0.2-1-0.3-1.5-0.3
		s-1.1,0.1-1.5,0.3c-0.5,0.2-0.9,0.5-1.2,0.8s-0.6,0.7-0.8,1.2c-0.2,0.4-0.3,0.9-0.3,1.4s0.1,1,0.3,1.4s0.4,0.8,0.8,1.2
		c0.3,0.3,0.7,0.6,1.2,0.8C56.8,405.6,57.3,405.7,57.9,405.7z"/>
	<path id="XMLID_87_" class="st0" d="M70.6,395.7h2.2v-1.9l2.9-2v3.9h2.6v2.6h-2.6v4.7c0,0.5,0,1,0.1,1.3s0.2,0.6,0.4,0.8
		c0.2,0.2,0.4,0.3,0.8,0.4c0.3,0.1,0.8,0.1,1.4,0.1v2.8H78c-1,0-1.8-0.1-2.5-0.3c-0.7-0.2-1.2-0.5-1.6-0.9s-0.7-1-0.8-1.6
		c-0.2-0.7-0.2-1.5-0.2-2.5v-4.8h-2.2v-2.6H70.6z"/>
	<path id="XMLID_85_" class="st0" d="M85.9,408.4c-0.9,0-1.8-0.2-2.6-0.5c-0.8-0.3-1.5-0.8-2.1-1.4s-1.1-1.3-1.4-2
		c-0.3-0.8-0.5-1.6-0.5-2.5s0.2-1.7,0.5-2.5s0.8-1.4,1.4-2s1.3-1,2.1-1.4c0.8-0.3,1.7-0.5,2.6-0.5s1.8,0.2,2.6,0.5
		c0.8,0.3,1.5,0.8,2.1,1.4s1.1,1.3,1.4,2c0.3,0.8,0.5,1.6,0.5,2.5s-0.2,1.7-0.5,2.5s-0.8,1.4-1.4,2s-1.3,1-2.1,1.4
		C87.6,408.2,86.8,408.4,85.9,408.4z M85.9,405.6c0.5,0,1-0.1,1.5-0.3c0.5-0.2,0.8-0.4,1.2-0.8c0.3-0.3,0.6-0.7,0.8-1.1
		s0.3-0.9,0.3-1.4s-0.1-1-0.3-1.4c-0.2-0.4-0.4-0.8-0.8-1.1c-0.4-0.3-0.7-0.6-1.2-0.8c-0.4-0.2-0.9-0.3-1.5-0.3s-1,0.1-1.5,0.3
		c-0.5,0.2-0.8,0.4-1.2,0.8s-0.6,0.7-0.8,1.1c-0.2,0.4-0.3,0.9-0.3,1.4s0.1,1,0.3,1.4s0.4,0.8,0.8,1.1c0.3,0.3,0.7,0.6,1.2,0.8
		S85.4,405.6,85.9,405.6z"/>
	<path id="XMLID_84_" class="st0" d="M99,405.6c0-0.7,0.1-1.3,0.4-1.8c0.2-0.5,0.6-1,1-1.5c0.4-0.4,0.8-0.9,1.3-1.2
		c0.5-0.4,1-0.7,1.5-1c0.4-0.3,0.8-0.5,1.1-0.8c0.3-0.3,0.7-0.5,1-0.7s0.5-0.5,0.7-0.8s0.2-0.5,0.2-0.8c0-0.5-0.2-0.9-0.6-1.3
		s-0.9-0.5-1.6-0.5s-1.3,0.2-1.7,0.6c-0.4,0.4-0.8,1-1.1,1.7l-2.5-1.2c0.5-1.1,1.2-2,2.1-2.6s2-1,3.3-1c0.8,0,1.5,0.1,2.2,0.3
		c0.6,0.2,1.2,0.5,1.6,0.9s0.8,0.9,1,1.4s0.3,1.1,0.3,1.7s-0.1,1.2-0.3,1.7c-0.2,0.5-0.5,0.9-0.9,1.3s-0.8,0.8-1.3,1.1
		c-0.5,0.3-0.9,0.7-1.4,1c-0.4,0.3-0.8,0.5-1.2,0.8s-0.7,0.5-1,0.8s-0.5,0.6-0.7,0.9s-0.3,0.7-0.3,1h7.1v2.8H99V405.6z"/>
	<path id="XMLID_82_" class="st0" d="M117.3,404.7h-6.8V402l6.6-9.5h3v9.5h2.3v2.7h-2.3v3.7h-2.9L117.3,404.7L117.3,404.7z
		 M117.3,402v-5.1l-3.6,5.1H117.3z"/>
	<path id="XMLID_80_" class="st0" d="M129.4,395.7h2.9v1.6c0.4-0.5,0.9-0.9,1.5-1.2c0.6-0.3,1.3-0.4,2.1-0.4c1,0,1.8,0.2,2.5,0.6
		s1.2,0.9,1.6,1.6c0.4-0.7,1-1.2,1.7-1.6s1.5-0.6,2.4-0.6c1.7,0,3,0.5,3.9,1.4s1.3,2.2,1.3,3.8v7.5h-3v-7.2c0-0.9-0.2-1.6-0.7-2.1
		s-1.1-0.8-2.1-0.8c-0.8,0-1.5,0.3-2,0.8s-0.8,1.3-0.8,2.4v6.9h-3v-7.3c0-0.9-0.2-1.6-0.7-2.1c-0.4-0.5-1.1-0.8-2-0.8
		c-0.8,0-1.5,0.3-2,0.8s-0.8,1.4-0.8,2.5v6.9h-2.9v-12.7L129.4,395.7L129.4,395.7z"/>
	<path id="XMLID_79_" class="st0" d="M157.2,408.4c-0.9,0-1.8-0.2-2.6-0.5s-1.5-0.8-2.1-1.4s-1.1-1.3-1.4-2
		c-0.3-0.8-0.5-1.6-0.5-2.5s0.2-1.7,0.5-2.5s0.8-1.4,1.4-2c0.6-0.6,1.3-1,2.1-1.4c0.8-0.3,1.7-0.5,2.6-0.5s1.8,0.2,2.6,0.5
		s1.5,0.8,2.1,1.4s1.1,1.3,1.4,2c0.3,0.8,0.5,1.6,0.5,2.5s-0.2,1.7-0.5,2.5s-0.8,1.4-1.4,2c-0.6,0.6-1.3,1-2.1,1.4
		C158.9,408.2,158.1,408.4,157.2,408.4z M157.2,405.6c0.5,0,1-0.1,1.5-0.3c0.5-0.2,0.8-0.4,1.2-0.8c0.3-0.3,0.6-0.7,0.8-1.1
		s0.3-0.9,0.3-1.4s-0.1-1-0.3-1.4s-0.4-0.8-0.8-1.1c-0.4-0.3-0.7-0.6-1.2-0.8c-0.4-0.2-0.9-0.3-1.5-0.3s-1,0.1-1.5,0.3
		c-0.5,0.2-0.8,0.4-1.2,0.8s-0.6,0.7-0.8,1.1s-0.3,0.9-0.3,1.4s0.1,1,0.3,1.4s0.4,0.8,0.8,1.1c0.3,0.3,0.7,0.6,1.2,0.8
		S156.6,405.6,157.2,405.6z"/>
	<path id="XMLID_77_" class="st0" d="M165,395.7h2.9v1.7c0.4-0.5,0.9-1,1.6-1.3c0.7-0.3,1.4-0.5,2.2-0.5c1.6,0,2.8,0.5,3.7,1.4
		s1.3,2.2,1.3,3.9v7.5h-3v-7c0-1-0.2-1.7-0.7-2.3c-0.5-0.6-1.2-0.8-2.1-0.8c-0.8,0-1.5,0.3-2.1,0.9s-0.9,1.4-0.9,2.5v6.7H165V395.7z
		"/>
	<path id="XMLID_74_" class="st0" d="M178,395.7h2.2v-1.9l2.9-2v3.9h2.6v2.6h-2.6v4.7c0,0.5,0,1,0.1,1.3s0.2,0.6,0.4,0.8
		c0.2,0.2,0.4,0.3,0.8,0.4c0.3,0.1,0.8,0.1,1.4,0.1v2.8h-0.4c-1,0-1.8-0.1-2.5-0.3c-0.7-0.2-1.2-0.5-1.6-0.9c-0.4-0.4-0.7-1-0.8-1.6
		c-0.2-0.7-0.2-1.5-0.2-2.5v-4.8H178V395.7z"/>
	<path id="XMLID_73_" class="st0" d="M187,392.3h2.9v5.1c0.4-0.5,1-1,1.6-1.3s1.4-0.5,2.2-0.5c1.6,0,2.8,0.5,3.7,1.4
		s1.3,2.2,1.3,3.9v7.5h-3v-7c0-1-0.2-1.7-0.7-2.3c-0.5-0.6-1.2-0.8-2.1-0.8c-0.4,0-0.8,0.1-1.1,0.2c-0.4,0.1-0.7,0.4-0.9,0.6
		c-0.3,0.3-0.5,0.6-0.6,1.1s-0.2,0.9-0.2,1.4v6.8H187V392.3z"/>
	<path id="XMLID_72_" class="st0" d="M205.2,408.4c-1.4,0-2.6-0.3-3.5-0.8s-1.6-1.3-2.1-2.3l2.7-1.2c0.3,0.6,0.7,1,1.2,1.3
		s1.1,0.4,1.8,0.4s1.3-0.1,1.6-0.4s0.5-0.6,0.5-1c0-0.2-0.1-0.4-0.2-0.5c-0.2-0.1-0.4-0.3-0.6-0.4c-0.3-0.1-0.6-0.2-0.9-0.3
		c-0.4-0.1-0.7-0.1-1.1-0.2c-0.5-0.1-1.1-0.2-1.6-0.4c-0.5-0.2-1-0.4-1.4-0.6s-0.8-0.6-1-1c-0.3-0.4-0.4-0.9-0.4-1.6
		c0-0.5,0.1-0.9,0.4-1.4c0.2-0.4,0.6-0.8,1-1.2c0.4-0.3,1-0.6,1.6-0.8c0.6-0.2,1.3-0.3,2-0.3c1.3,0,2.3,0.2,3.2,0.7s1.5,1.1,2,1.9
		l-2.5,1.2c-0.3-0.4-0.6-0.8-1.1-1s-1-0.4-1.6-0.4c-0.7,0-1.2,0.1-1.5,0.4s-0.5,0.6-0.5,0.9c0,0.4,0.2,0.7,0.7,0.9
		c0.5,0.2,1.2,0.4,2.2,0.5c0.5,0.1,1,0.2,1.6,0.4c0.5,0.2,1,0.4,1.4,0.6s0.8,0.6,1,1s0.4,0.9,0.4,1.6c0,0.4-0.1,0.9-0.3,1.3
		c-0.2,0.5-0.5,0.9-0.9,1.3s-1,0.7-1.6,1C206.9,408.3,206.1,408.4,205.2,408.4z"/>
	<path id="XMLID_70_" class="st0" d="M61.6,431.5c-1.1,0-2.2-0.2-3.2-0.6s-1.8-1-2.6-1.7c-0.7-0.7-1.3-1.6-1.7-2.6s-0.6-2-0.6-3.2
		c0-1.1,0.2-2.2,0.6-3.2c0.4-1,1-1.8,1.7-2.6c0.7-0.7,1.6-1.3,2.6-1.7c1-0.4,2-0.6,3.2-0.6s2.4,0.2,3.3,0.6c1,0.4,1.8,1,2.5,1.6
		s1.2,1.5,1.6,2.3c0.4,0.9,0.6,1.8,0.6,2.7c0,0.6-0.1,1.2-0.3,1.8c-0.2,0.5-0.4,1-0.7,1.5c-0.3,0.4-0.7,0.8-1.2,1s-1,0.4-1.5,0.4
		c-0.6,0-1.2-0.1-1.6-0.3c-0.4-0.2-0.8-0.5-1-0.8c-0.3,0.4-0.6,0.7-1.1,0.9c-0.5,0.2-1,0.3-1.6,0.3c-0.4,0-0.9-0.1-1.3-0.3
		c-0.4-0.2-0.8-0.4-1.1-0.7c-0.3-0.3-0.6-0.7-0.7-1.2c-0.2-0.5-0.2-1-0.2-1.7c0.1-0.7,0.2-1.2,0.5-1.7s0.6-0.9,1-1.2
		c0.4-0.3,0.8-0.6,1.2-0.7c0.4-0.2,0.8-0.2,1.2-0.2c0.5,0,0.9,0.1,1.2,0.2c0.4,0.1,0.6,0.3,0.9,0.6c0-0.2,0-0.3,0-0.4s0-0.2,0-0.2
		c0-0.1,0-0.1,0-0.1h2.3l-0.4,3.7c-0.1,0.5,0,0.8,0.1,1.1c0.1,0.3,0.4,0.4,0.8,0.4c0.3,0,0.6-0.2,0.9-0.6c0.2-0.4,0.3-1,0.3-1.6
		s-0.1-1.2-0.4-1.8s-0.6-1.1-1.1-1.6s-1.1-0.9-1.8-1.1c-0.7-0.3-1.5-0.4-2.4-0.4c-0.8,0-1.6,0.2-2.3,0.5s-1.3,0.7-1.8,1.3
		c-0.5,0.5-0.9,1.2-1.2,1.9c-0.3,0.7-0.5,1.5-0.5,2.3s0.2,1.6,0.5,2.3s0.7,1.3,1.2,1.9s1.1,1,1.8,1.3s1.5,0.5,2.3,0.5
		c0.9,0,1.7-0.2,2.4-0.5s1.4-0.8,1.9-1.4l1.8,1.5c-0.7,0.8-1.6,1.5-2.7,2C63.9,431.3,62.8,431.5,61.6,431.5z M61.1,424.9
		c0.5,0,0.9-0.2,1.3-0.5c0.3-0.3,0.5-0.7,0.6-1.2s-0.1-0.9-0.3-1.2c-0.3-0.4-0.7-0.6-1.2-0.6s-0.9,0.2-1.3,0.5s-0.6,0.8-0.6,1.3
		c-0.1,0.5,0,0.9,0.3,1.2C60.3,424.7,60.7,424.9,61.1,424.9z"/>
	<path id="XMLID_68_" class="st0" d="M81.8,428.9c-0.9,0-1.6-0.1-2.3-0.4c-0.7-0.2-1.2-0.6-1.7-1s-0.8-1-1-1.6s-0.4-1.3-0.4-2v-5.7
		c0-0.7,0.1-1.4,0.4-2s0.6-1.2,1.1-1.6c0.5-0.5,1-0.8,1.7-1.1c0.7-0.3,1.4-0.4,2.2-0.4c0.8,0,1.6,0.1,2.2,0.4
		c0.7,0.3,1.2,0.6,1.7,1.1s0.8,1,1.1,1.6c0.3,0.6,0.4,1.3,0.4,2v5.7c0,0.8-0.1,1.4-0.4,2.1c-0.2,0.6-0.6,1.1-1,1.6
		c-0.5,0.4-1,0.8-1.7,1C83.4,428.7,82.6,428.9,81.8,428.9z M81.8,425.9c0.8,0,1.4-0.2,1.8-0.7c0.4-0.4,0.6-1,0.6-1.6v-5.4
		c0-0.7-0.2-1.3-0.6-1.7s-1-0.6-1.8-0.6s-1.4,0.2-1.8,0.7s-0.6,1-0.6,1.7v5.4c0,0.7,0.2,1.2,0.6,1.6S81,425.9,81.8,425.9z"/>
	<path id="XMLID_67_" class="st0" d="M102,413h3.7l-13.6,15.8h-3.7L102,413z M88.6,416.7c0-0.5,0.1-1,0.3-1.4
		c0.2-0.4,0.5-0.8,0.8-1.2c0.4-0.3,0.8-0.6,1.2-0.8c0.5-0.2,1-0.3,1.5-0.3s1,0.1,1.5,0.3c0.5,0.2,0.9,0.5,1.2,0.8
		c0.3,0.3,0.6,0.7,0.8,1.2c0.2,0.4,0.3,0.9,0.3,1.4s-0.1,1-0.3,1.4c-0.2,0.4-0.5,0.8-0.8,1.2c-0.3,0.3-0.8,0.6-1.2,0.8
		c-0.5,0.2-1,0.3-1.5,0.3s-1-0.1-1.5-0.3s-0.9-0.5-1.2-0.8c-0.4-0.3-0.6-0.7-0.8-1.2S88.6,417.2,88.6,416.7z M91.1,416.7
		c0,0.3,0.1,0.6,0.4,0.9c0.3,0.2,0.6,0.4,1,0.4s0.7-0.1,1-0.4c0.3-0.2,0.4-0.5,0.4-0.9c0-0.3-0.1-0.6-0.4-0.8s-0.6-0.4-1-0.4
		s-0.7,0.1-1,0.4S91.1,416.3,91.1,416.7z M97.8,425c0-0.5,0.1-1,0.3-1.5c0.2-0.5,0.5-0.9,0.8-1.2c0.4-0.3,0.8-0.6,1.2-0.8
		c0.5-0.2,1-0.3,1.5-0.3s1,0.1,1.5,0.3c0.5,0.2,0.9,0.5,1.2,0.8c0.3,0.3,0.6,0.8,0.8,1.2c0.2,0.5,0.3,1,0.3,1.5s-0.1,1-0.3,1.5
		c-0.2,0.5-0.5,0.9-0.8,1.2c-0.3,0.4-0.8,0.6-1.2,0.8c-0.5,0.2-1,0.3-1.5,0.3s-1-0.1-1.5-0.3c-0.5-0.2-0.9-0.5-1.2-0.8
		c-0.3-0.3-0.6-0.8-0.8-1.2C97.9,426,97.8,425.5,97.8,425z M100.3,425c0,0.4,0.1,0.7,0.4,1s0.6,0.4,1,0.4s0.7-0.1,1-0.4
		s0.4-0.6,0.4-1s-0.1-0.7-0.4-1s-0.6-0.4-1-0.4s-0.7,0.1-1,0.4S100.3,424.6,100.3,425z"/>
	<path id="XMLID_65_" class="st0" d="M111.8,413.1c0-0.5,0.2-1,0.5-1.3s0.8-0.5,1.3-0.5c0.6,0,1,0.2,1.4,0.5s0.5,0.8,0.5,1.3
		s-0.2,1-0.5,1.3s-0.8,0.5-1.4,0.5s-1-0.2-1.4-0.5C111.9,414.1,111.8,413.6,111.8,413.1z M112.1,416.2h2.9v12.7h-2.9V416.2z"/>
	<path id="XMLID_64_" class="st0" d="M116.8,416.2h2.9v1.7c0.4-0.5,0.9-1,1.6-1.3s1.4-0.5,2.2-0.5c1.6,0,2.8,0.5,3.7,1.4
		s1.3,2.2,1.3,3.9v7.4h-3v-7c0-1-0.2-1.7-0.7-2.3s-1.2-0.8-2.1-0.8c-0.8,0-1.5,0.3-2.1,0.9s-0.9,1.4-0.9,2.5v6.8h-2.9V416.2z"/>
	<path id="XMLID_63_" class="st0" d="M129.7,416.2h2.2v-1.9l2.9-2v3.9h2.6v2.6h-2.6v4.7c0,0.5,0,1,0.1,1.3s0.2,0.6,0.4,0.8
		c0.2,0.2,0.4,0.3,0.8,0.4c0.3,0.1,0.8,0.1,1.4,0.1v2.7H137c-1,0-1.8-0.1-2.5-0.3c-0.7-0.2-1.2-0.5-1.6-0.9c-0.4-0.4-0.7-1-0.8-1.6
		c-0.2-0.7-0.2-1.5-0.2-2.5v-4.8h-2.2V416.2z"/>
	<path id="XMLID_61_" class="st0" d="M145.1,428.9c-1,0-1.9-0.2-2.7-0.5s-1.5-0.8-2.1-1.3s-1-1.2-1.4-2c-0.3-0.8-0.5-1.6-0.5-2.5
		s0.2-1.7,0.5-2.5s0.8-1.5,1.4-2c0.6-0.6,1.3-1,2.1-1.4c0.8-0.3,1.7-0.5,2.6-0.5c0.9,0,1.8,0.2,2.6,0.5s1.5,0.7,2.1,1.3
		s1,1.2,1.4,1.9s0.5,1.6,0.5,2.4v1h-10.3c0.2,0.9,0.6,1.6,1.3,2.2c0.7,0.5,1.5,0.8,2.6,0.8c0.8,0,1.5-0.2,2.1-0.6s1.1-0.9,1.4-1.6
		l2.3,1.3c-0.5,1-1.3,1.9-2.3,2.5C147.7,428.6,146.5,428.9,145.1,428.9z M145,418.7c-0.9,0-1.6,0.2-2.3,0.6
		c-0.6,0.4-1.1,0.9-1.4,1.5h7.2c-0.2-0.7-0.6-1.2-1.3-1.6C146.7,418.9,145.9,418.7,145,418.7z"/>
	<path id="XMLID_59_" class="st0" d="M152.8,416.2h2.9v1.9c0.6-1.3,1.7-1.9,3.2-1.9c0.5,0,0.9,0.1,1.2,0.2c0.4,0.1,0.7,0.2,1,0.4
		l-1.1,2.8c-0.2-0.1-0.5-0.3-0.7-0.4c-0.3-0.1-0.6-0.1-1-0.1c-0.9,0-1.5,0.2-1.9,0.7s-0.7,1.3-0.7,2.4v6.8h-2.9V416.2z"/>
	<path id="XMLID_57_" class="st0" d="M168.4,428.9c-1,0-1.9-0.2-2.7-0.5s-1.5-0.8-2.1-1.3s-1-1.2-1.4-2c-0.3-0.8-0.5-1.6-0.5-2.5
		s0.2-1.7,0.5-2.5s0.8-1.5,1.4-2c0.6-0.6,1.3-1,2.1-1.4c0.8-0.3,1.7-0.5,2.6-0.5c0.9,0,1.8,0.2,2.6,0.5s1.5,0.7,2.1,1.3
		s1,1.2,1.4,1.9s0.5,1.6,0.5,2.4v1h-10.3c0.2,0.9,0.6,1.6,1.3,2.2c0.7,0.5,1.5,0.8,2.6,0.8c0.8,0,1.5-0.2,2.1-0.6s1.1-0.9,1.4-1.6
		l2.4,1.4c-0.5,1-1.3,1.9-2.3,2.5C171,428.6,169.8,428.9,168.4,428.9z M168.3,418.7c-0.9,0-1.6,0.2-2.3,0.6
		c-0.6,0.4-1.1,0.9-1.4,1.5h7.2c-0.2-0.7-0.6-1.2-1.3-1.6C170,418.9,169.2,418.7,168.3,418.7z"/>
	<path id="XMLID_56_" class="st0" d="M180.9,428.9c-1.4,0-2.6-0.3-3.5-0.8s-1.6-1.3-2.1-2.3l2.7-1.2c0.3,0.6,0.7,1,1.2,1.3
		s1.1,0.4,1.8,0.4s1.3-0.1,1.6-0.4s0.5-0.6,0.5-1c0-0.2-0.1-0.4-0.2-0.5c-0.2-0.1-0.4-0.3-0.6-0.4c-0.3-0.1-0.6-0.2-0.9-0.3
		c-0.4-0.1-0.7-0.1-1.1-0.2c-0.5-0.1-1.1-0.2-1.6-0.4c-0.5-0.2-1-0.4-1.4-0.6s-0.8-0.6-1-1c-0.3-0.4-0.4-0.9-0.4-1.6
		c0-0.5,0.1-0.9,0.4-1.4c0.2-0.4,0.6-0.8,1-1.2c0.4-0.3,1-0.6,1.6-0.8c0.6-0.2,1.3-0.3,2-0.3c1.3,0,2.3,0.2,3.2,0.7s1.5,1.1,2,1.9
		l-2.5,1.2c-0.3-0.4-0.6-0.8-1.1-1s-1-0.4-1.6-0.4c-0.7,0-1.2,0.1-1.5,0.4s-0.5,0.6-0.5,0.9c0,0.4,0.2,0.7,0.7,0.9s1.2,0.4,2.2,0.5
		c0.5,0.1,1,0.2,1.6,0.4c0.5,0.2,1,0.4,1.4,0.6s0.8,0.6,1,1s0.4,0.9,0.4,1.6c0,0.4-0.1,0.9-0.3,1.3c-0.2,0.5-0.5,0.9-0.9,1.3
		s-1,0.7-1.6,1C182.6,428.7,181.8,428.9,180.9,428.9z"/>
	<path id="XMLID_54_" class="st0" d="M186.9,416.2h2.2v-1.9l2.9-2v3.9h2.6v2.6H192v4.7c0,0.5,0,1,0.1,1.3s0.2,0.6,0.4,0.8
		c0.2,0.2,0.4,0.3,0.8,0.4c0.3,0.1,0.8,0.1,1.4,0.1v2.7h-0.4c-1,0-1.8-0.1-2.5-0.3c-0.7-0.2-1.2-0.5-1.6-0.9c-0.4-0.4-0.7-1-0.8-1.6
		c-0.2-0.7-0.2-1.5-0.2-2.5v-4.8H187v-2.5L186.9,416.2L186.9,416.2z"/>
</g>
<path id="XMLID_50_" class="st0" d="M292.9,386.6c4.1-29.4,37.3-46.5,66.3-44.3L549.1,357l-3.8,48.8c-4.1,29.4-37.3,46.5-66.3,44.3
	l-189.8-14.7L292.9,386.6z"/>
<path id="XMLID_48_" class="st1" d="M292.9,386.6c4.1-29.4,37.3-46.5,66.3-44.3L549.1,357l-3.8,48.8c-4.1,29.4-37.3,46.5-66.3,44.3
	l-189.8-14.7L292.9,386.6z"/>
<g id="XMLID_45_">
	
		<linearGradient id="XMLID_25_" gradientUnits="userSpaceOnUse" x1="299.2357" y1="392.2333" x2="539.0357" y2="392.2333" gradientTransform="matrix(1 0 0 1 0 4)">
		<stop  offset="0" style="stop-color:#0A529E"/>
		<stop  offset="1" style="stop-color:#0C6DB6"/>
	</linearGradient>
	<path id="XMLID_47_" class="st3" d="M299.2,396.4c1.7-29.6,31.8-49.2,59.4-49.2H539V396c-1.7,29.6-31.8,49.2-59.4,49.2H299.2V396.4
		z"/>
</g>
<path id="XMLID_44_" class="st0" d="M399.5,361.3h2.9l5.9,9.3v-9.3h2.5v13.6h-2.7l-6.1-9.6v9.6h-2.5L399.5,361.3L399.5,361.3z"/>
<path id="XMLID_42_" class="st0" d="M417.7,374.9c-0.9,0-1.6-0.1-2.3-0.4c-0.7-0.3-1.3-0.7-1.8-1.2s-0.9-1.1-1.2-1.7
	c-0.3-0.7-0.4-1.4-0.4-2.1c0-0.8,0.1-1.5,0.4-2.2c0.3-0.7,0.7-1.3,1.2-1.7c0.5-0.5,1.1-0.9,1.8-1.2c0.7-0.3,1.4-0.4,2.2-0.4
	c0.8,0,1.6,0.1,2.2,0.4c0.7,0.3,1.3,0.6,1.8,1.1s0.9,1,1.2,1.7c0.3,0.7,0.4,1.3,0.4,2.1v0.9h-8.8c0.2,0.8,0.6,1.4,1.1,1.9
	c0.6,0.5,1.3,0.7,2.2,0.7c0.7,0,1.3-0.2,1.8-0.5s0.9-0.8,1.2-1.4l2.1,1.2c-0.5,0.9-1.1,1.6-2,2.1
	C419.9,374.7,418.9,374.9,417.7,374.9z M417.6,366.2c-0.8,0-1.4,0.2-2,0.5s-0.9,0.8-1.2,1.3h6.2c-0.2-0.6-0.5-1.1-1.1-1.4
	C419.1,366.3,418.4,366.2,417.6,366.2z"/>
<path id="XMLID_41_" class="st0" d="M424,364h2.6l2.4,7.5l2.7-7.5h2.5l2.7,7.5l2.5-7.5h2.6l-3.8,10.9h-2.4l-2.8-7.5l-2.8,7.5h-2.5
	L424,364z"/>
<path id="XMLID_39_" class="st0" d="M339.1,404.7c-1.8,0-3.3-0.3-4.5-1c-1.2-0.7-2.1-1.6-2.8-2.9l3.5-1.6c0.4,0.7,0.9,1.3,1.6,1.6
	c0.7,0.4,1.4,0.6,2.3,0.6s1.6-0.2,2.1-0.6c0.5-0.4,0.7-0.8,0.7-1.3c0-0.3-0.1-0.5-0.3-0.7s-0.5-0.3-0.8-0.5
	c-0.3-0.1-0.7-0.2-1.2-0.3s-0.9-0.2-1.4-0.3c-0.7-0.1-1.4-0.3-2.1-0.5s-1.3-0.5-1.8-0.8s-1-0.8-1.3-1.3c-0.3-0.5-0.5-1.2-0.5-2
	c0-0.6,0.2-1.2,0.5-1.8c0.3-0.6,0.7-1.1,1.3-1.5c0.6-0.4,1.2-0.8,2-1c0.8-0.2,1.7-0.4,2.6-0.4c1.6,0,3,0.3,4.1,0.9
	c1.1,0.6,1.9,1.4,2.6,2.5l-3.2,1.5c-0.3-0.5-0.8-1-1.4-1.3s-1.3-0.5-2.1-0.5c-0.9,0-1.5,0.2-2,0.5c-0.4,0.3-0.6,0.7-0.6,1.2
	s0.3,0.9,0.9,1.1s1.6,0.5,2.8,0.7c0.7,0.1,1.3,0.3,2,0.5c0.7,0.2,1.3,0.5,1.8,0.8c0.6,0.3,1,0.8,1.3,1.3s0.5,1.2,0.5,2
	c0,0.5-0.1,1.1-0.4,1.7c-0.3,0.6-0.7,1.1-1.2,1.6s-1.2,0.9-2.1,1.2C341.3,404.5,340.3,404.7,339.1,404.7z"/>
<path id="XMLID_37_" class="st0" d="M356.5,404.7c-1.1,0-2.1-0.2-3.1-0.6c-0.9-0.4-1.7-0.9-2.3-1.7v9.7h-3.7v-23.7h3.7v2.4
	c0.6-0.7,1.3-1.3,2.2-1.8c0.9-0.4,1.9-0.7,3-0.7c1,0,2,0.2,3,0.6c1,0.4,1.8,0.9,2.6,1.6c0.8,0.7,1.3,1.5,1.8,2.6
	c0.5,1,0.7,2.2,0.7,3.5s-0.2,2.4-0.7,3.4s-1.1,1.9-1.8,2.6c-0.8,0.7-1.6,1.2-2.6,1.6C358.3,404.6,357.4,404.7,356.5,404.7z
	 M355.8,401.2c0.7,0,1.3-0.1,1.9-0.4c0.6-0.2,1.1-0.6,1.6-1c0.4-0.4,0.8-0.9,1-1.5c0.2-0.6,0.4-1.2,0.4-1.9s-0.1-1.3-0.4-1.9
	c-0.2-0.6-0.6-1.1-1-1.5s-1-0.7-1.6-1c-0.6-0.2-1.2-0.4-1.9-0.4s-1.4,0.1-1.9,0.4c-0.6,0.2-1.1,0.6-1.5,1c-0.4,0.4-0.8,0.9-1,1.5
	c-0.2,0.6-0.4,1.2-0.4,1.8c0,0.7,0.1,1.3,0.4,1.9c0.2,0.6,0.6,1.1,1,1.5c0.4,0.4,0.9,0.8,1.5,1C354.5,401.1,355.1,401.2,355.8,401.2
	z"/>
<path id="XMLID_36_" class="st0" d="M374,404.7c-1.3,0-2.4-0.2-3.5-0.6c-1.1-0.4-2-1-2.7-1.7c-0.7-0.7-1.3-1.6-1.8-2.6
	c-0.4-1-0.6-2-0.6-3.2c0-1.1,0.2-2.2,0.7-3.2c0.4-1,1-1.9,1.8-2.6c0.8-0.7,1.7-1.3,2.7-1.7s2.1-0.6,3.3-0.6c1.2,0,2.3,0.2,3.3,0.6
	s1.9,0.9,2.7,1.6c0.7,0.7,1.3,1.5,1.7,2.5s0.6,2,0.6,3.1v1.3H369c0.3,1.1,0.8,2.1,1.7,2.8s2,1.1,3.3,1.1c1.1,0,2-0.3,2.8-0.8
	c0.8-0.5,1.4-1.2,1.8-2.1l3.1,1.8c-0.7,1.3-1.7,2.4-3,3.2C377.4,404.3,375.9,404.7,374,404.7z M373.9,391.7c-1.1,0-2.1,0.2-2.9,0.7
	c-0.8,0.5-1.4,1.2-1.7,2h9.2c-0.3-0.9-0.8-1.6-1.6-2C376.1,391.9,375.1,391.7,373.9,391.7z"/>
<path id="XMLID_34_" class="st0" d="M391.9,404.7c-1.2,0-2.3-0.2-3.3-0.6s-1.9-1-2.7-1.7c-0.8-0.7-1.4-1.6-1.8-2.6s-0.7-2-0.7-3.2
	c0-1.1,0.2-2.2,0.7-3.2c0.4-1,1-1.9,1.8-2.6c0.8-0.7,1.7-1.3,2.7-1.7s2.1-0.6,3.3-0.6c0.9,0,1.8,0.1,2.6,0.4c0.8,0.2,1.5,0.6,2.2,1
	c0.7,0.4,1.3,1,1.8,1.6s0.9,1.3,1.2,2l-3.4,1.3c-0.4-0.8-0.9-1.5-1.7-2s-1.7-0.7-2.7-0.7c-0.7,0-1.3,0.1-1.9,0.4
	c-0.6,0.2-1.1,0.6-1.5,1c-0.4,0.4-0.8,0.9-1,1.5c-0.2,0.6-0.4,1.2-0.4,1.8s0.1,1.2,0.4,1.8c0.2,0.6,0.6,1.1,1,1.5
	c0.4,0.4,0.9,0.7,1.5,1c0.6,0.2,1.2,0.4,1.9,0.4c1.1,0,2-0.3,2.7-0.8c0.8-0.5,1.3-1.2,1.7-2l3.4,1.4c-0.3,0.7-0.7,1.4-1.2,2
	s-1.1,1.1-1.7,1.6c-0.7,0.4-1.4,0.8-2.2,1C393.7,404.5,392.8,404.7,391.9,404.7z"/>
<path id="XMLID_32_" class="st0" d="M400.6,384.4c0-0.7,0.2-1.3,0.6-1.7s1-0.7,1.7-0.7c0.7,0,1.3,0.2,1.7,0.7c0.4,0.4,0.6,1,0.6,1.7
	s-0.2,1.3-0.6,1.7c-0.4,0.4-1,0.6-1.7,0.6c-0.8,0-1.3-0.2-1.8-0.6C400.8,385.7,400.6,385.1,400.6,384.4z M401.1,388.4h3.8v16.3h-3.8
	V388.4z"/>
<path id="XMLID_31_" class="st0" d="M414.5,404.7c-1,0-2-0.2-2.9-0.5c-1-0.4-1.8-0.9-2.6-1.6c-0.8-0.7-1.4-1.5-1.8-2.6
	c-0.5-1-0.7-2.2-0.7-3.4c0-1.3,0.2-2.5,0.7-3.5s1.1-1.9,1.8-2.6c0.7-0.7,1.6-1.2,2.6-1.6c1-0.4,2-0.6,3-0.6c1.1,0,2.1,0.2,3,0.6
	c0.9,0.4,1.7,0.9,2.3,1.6v-2.1h3.8v16.3h-3.8v-2.3c-0.6,0.7-1.4,1.3-2.3,1.7C416.6,404.5,415.6,404.7,414.5,404.7z M415.1,401.2
	c0.7,0,1.4-0.1,1.9-0.4c0.6-0.2,1.1-0.6,1.5-1c0.4-0.4,0.8-0.9,1-1.5c0.2-0.6,0.4-1.2,0.4-1.9c0-0.6-0.1-1.3-0.4-1.8
	c-0.2-0.6-0.6-1.1-1-1.5c-0.4-0.4-0.9-0.8-1.5-1c-0.6-0.2-1.2-0.4-1.9-0.4c-0.7,0-1.3,0.1-1.9,0.4c-0.6,0.2-1.1,0.6-1.6,1
	c-0.4,0.4-0.8,0.9-1,1.5c-0.2,0.6-0.4,1.2-0.4,1.9s0.1,1.3,0.4,1.9c0.2,0.6,0.6,1.1,1,1.5s1,0.8,1.6,1
	C413.8,401.1,414.4,401.2,415.1,401.2z"/>
<path id="XMLID_27_" class="st0" d="M425.7,384.1h3.8v20.6h-3.8V384.1z"/>
<path id="XMLID_26_" class="st0" d="M447.5,404.7c-1.1,0-2.1-0.2-3.1-0.6c-0.9-0.4-1.7-0.9-2.3-1.7v9.7h-3.7v-23.7h3.7v2.4
	c0.6-0.7,1.3-1.3,2.2-1.8c0.9-0.4,1.9-0.7,3-0.7c1,0,2,0.2,3,0.6c1,0.4,1.8,0.9,2.6,1.6c0.8,0.7,1.3,1.5,1.8,2.6
	c0.5,1,0.7,2.2,0.7,3.5s-0.2,2.4-0.7,3.4s-1.1,1.9-1.8,2.6c-0.8,0.7-1.6,1.2-2.6,1.6C449.3,404.6,448.5,404.7,447.5,404.7z
	 M446.9,401.2c0.7,0,1.3-0.1,1.9-0.4c0.6-0.2,1.1-0.6,1.6-1c0.4-0.4,0.8-0.9,1-1.5c0.2-0.6,0.4-1.2,0.4-1.9s-0.1-1.3-0.4-1.9
	c-0.2-0.6-0.6-1.1-1-1.5s-1-0.7-1.6-1c-0.6-0.2-1.2-0.4-1.9-0.4c-0.7,0-1.4,0.1-1.9,0.4c-0.6,0.2-1.1,0.6-1.5,1s-0.8,0.9-1,1.5
	c-0.2,0.6-0.4,1.2-0.4,1.8c0,0.7,0.1,1.3,0.4,1.9c0.2,0.6,0.6,1.1,1,1.5s0.9,0.8,1.5,1C445.5,401.1,446.2,401.2,446.9,401.2z"/>
<path id="XMLID_24_" class="st0" d="M457,388.4h3.7v2.4c0.8-1.6,2.1-2.4,4.2-2.4c0.6,0,1.1,0.1,1.6,0.2s0.9,0.3,1.3,0.5l-1.4,3.6
	c-0.3-0.2-0.6-0.3-0.9-0.5c-0.3-0.1-0.8-0.2-1.3-0.2c-1.1,0-1.9,0.3-2.5,0.9c-0.6,0.6-0.8,1.6-0.8,3v8.7h-3.8v-16.2H457z"/>
<path id="XMLID_23_" class="st0" d="M468.5,384.4c0-0.7,0.2-1.3,0.6-1.7c0.4-0.4,1-0.7,1.7-0.7c0.7,0,1.3,0.2,1.7,0.7
	c0.4,0.4,0.6,1,0.6,1.7s-0.2,1.3-0.6,1.7c-0.4,0.4-1,0.6-1.7,0.6c-0.8,0-1.3-0.2-1.8-0.6C468.7,385.7,468.5,385.1,468.5,384.4z
	 M469,388.4h3.8v16.3H469V388.4z"/>
<path id="XMLID_22_" class="st0" d="M482.9,404.7c-1.2,0-2.3-0.2-3.3-0.6s-1.9-1-2.7-1.7c-0.8-0.7-1.4-1.6-1.8-2.6
	c-0.4-1-0.7-2-0.7-3.2c0-1.1,0.2-2.2,0.7-3.2c0.4-1,1-1.9,1.8-2.6c0.8-0.7,1.7-1.3,2.7-1.7s2.1-0.6,3.3-0.6c0.9,0,1.8,0.1,2.6,0.4
	c0.8,0.2,1.5,0.6,2.2,1c0.7,0.4,1.3,1,1.8,1.6s0.9,1.3,1.2,2l-3.4,1.3c-0.4-0.8-0.9-1.5-1.7-2c-0.8-0.5-1.7-0.7-2.7-0.7
	c-0.7,0-1.3,0.1-1.9,0.4c-0.6,0.2-1.1,0.6-1.5,1s-0.8,0.9-1,1.5c-0.2,0.6-0.4,1.2-0.4,1.8s0.1,1.2,0.4,1.8c0.2,0.6,0.6,1.1,1,1.5
	s0.9,0.7,1.5,1c0.6,0.2,1.2,0.4,1.9,0.4c1.1,0,2-0.3,2.7-0.8c0.8-0.5,1.3-1.2,1.7-2l3.4,1.4c-0.3,0.7-0.7,1.4-1.2,2
	s-1.1,1.1-1.7,1.6c-0.7,0.4-1.4,0.8-2.2,1C484.7,404.5,483.8,404.7,482.9,404.7z"/>
<path id="XMLID_19_" class="st0" d="M500.2,404.7c-1.3,0-2.4-0.2-3.5-0.6s-2-1-2.7-1.7c-0.8-0.7-1.3-1.6-1.8-2.6
	c-0.4-1-0.6-2-0.6-3.2c0-1.1,0.2-2.2,0.7-3.2c0.4-1,1-1.9,1.8-2.6c0.8-0.7,1.7-1.3,2.7-1.7s2.1-0.6,3.3-0.6c1.2,0,2.3,0.2,3.3,0.6
	s1.9,0.9,2.7,1.6c0.7,0.7,1.3,1.5,1.7,2.5s0.6,2,0.6,3.1v1.3h-13.2c0.3,1.1,0.8,2.1,1.7,2.8s2,1.1,3.3,1.1c1.1,0,2-0.3,2.8-0.8
	c0.8-0.5,1.4-1.2,1.8-2.1l3.1,1.8c-0.7,1.3-1.7,2.4-3,3.2C503.5,404.3,502,404.7,500.2,404.7z M500,391.7c-1.1,0-2.1,0.2-2.9,0.7
	c-0.8,0.5-1.4,1.2-1.7,2h9.2c-0.3-0.9-0.8-1.6-1.6-2C502.2,391.9,501.2,391.7,500,391.7z"/>
<path id="XMLID_18_" class="st0" d="M360.7,428.4c-0.6-0.4-1.1-0.8-1.6-1.3s-0.9-1-1.2-1.6c-0.3-0.6-0.6-1.2-0.8-1.9
	c-0.2-0.7-0.3-1.4-0.3-2.2s0.1-1.5,0.3-2.2c0.2-0.7,0.4-1.3,0.8-1.8c0.3-0.6,0.7-1.1,1.2-1.5c0.5-0.5,1-0.9,1.5-1.3l1.3,1.4
	c-0.4,0.3-0.8,0.6-1.2,1s-0.7,0.8-1,1.2c-0.3,0.5-0.5,1-0.6,1.5c-0.1,0.5-0.2,1.1-0.2,1.8c0,1.2,0.3,2.3,0.8,3.2s1.3,1.7,2.3,2.3
	L360.7,428.4z"/>
<path id="XMLID_17_" class="st0" d="M366.2,424.9c-0.5,0-1-0.1-1.5-0.3s-0.9-0.4-1.3-0.8c-0.4-0.3-0.7-0.8-0.9-1.3
	c-0.2-0.5-0.3-1.1-0.3-1.7c0-0.7,0.1-1.2,0.3-1.7c0.2-0.5,0.5-0.9,0.9-1.3c0.4-0.3,0.8-0.6,1.3-0.8s1-0.3,1.5-0.3s1,0.1,1.5,0.3
	s0.8,0.5,1.1,0.8v-3.3h1.9v10.3h-1.9v-1.2c-0.3,0.4-0.7,0.6-1.1,0.9C367.2,424.8,366.7,424.9,366.2,424.9z M366.5,423.2
	c0.4,0,0.7-0.1,1-0.2c0.3-0.1,0.6-0.3,0.8-0.5c0.2-0.2,0.4-0.5,0.5-0.8s0.2-0.6,0.2-0.9c0-0.3-0.1-0.6-0.2-0.9s-0.3-0.5-0.5-0.7
	c-0.2-0.2-0.5-0.4-0.8-0.5c-0.3-0.1-0.6-0.2-1-0.2c-0.3,0-0.7,0.1-1,0.2c-0.3,0.1-0.6,0.3-0.8,0.5s-0.4,0.5-0.5,0.7
	c-0.1,0.3-0.2,0.6-0.2,0.9c0,0.3,0.1,0.6,0.2,0.9c0.1,0.3,0.3,0.5,0.5,0.8c0.2,0.2,0.5,0.4,0.8,0.5
	C365.8,423.2,366.1,423.2,366.5,423.2z"/>
<path id="XMLID_16_" class="st0" d="M371.5,414.8c0-0.4,0.1-0.6,0.3-0.9c0.2-0.3,0.5-0.3,0.9-0.3s0.7,0.1,0.9,0.3
	c0.2,0.2,0.3,0.5,0.3,0.9s-0.1,0.6-0.3,0.8c-0.2,0.2-0.5,0.3-0.9,0.3s-0.7-0.1-0.9-0.3S371.5,415.2,371.5,414.8z M371.8,416.8h1.9
	v8.1h-1.9V416.8z"/>
<path id="XMLID_15_" class="st0" d="M377.8,424.9c-0.9,0-1.6-0.2-2.2-0.5c-0.6-0.3-1.1-0.8-1.4-1.4l1.7-0.8c0.2,0.4,0.5,0.6,0.8,0.8
	c0.3,0.2,0.7,0.3,1.2,0.3s0.8-0.1,1-0.3c0.2-0.2,0.3-0.4,0.3-0.7c0-0.1-0.1-0.3-0.2-0.3c-0.1-0.1-0.2-0.2-0.4-0.2
	c-0.2-0.1-0.4-0.1-0.6-0.2c-0.2,0-0.5-0.1-0.7-0.1c-0.4-0.1-0.7-0.2-1-0.2c-0.3-0.1-0.6-0.2-0.9-0.4c-0.3-0.2-0.5-0.4-0.7-0.7
	c-0.2-0.3-0.2-0.6-0.2-1c0-0.3,0.1-0.6,0.2-0.9c0.2-0.3,0.4-0.5,0.6-0.8c0.3-0.2,0.6-0.4,1-0.5s0.8-0.2,1.3-0.2c0.8,0,1.5,0.1,2,0.5
	c0.5,0.3,1,0.7,1.3,1.2l-1.6,0.8c-0.2-0.3-0.4-0.5-0.7-0.6c-0.3-0.2-0.6-0.2-1-0.2s-0.8,0.1-1,0.3c-0.2,0.2-0.3,0.4-0.3,0.6
	c0,0.3,0.2,0.4,0.5,0.5c0.3,0.1,0.8,0.2,1.4,0.4c0.3,0.1,0.7,0.1,1,0.2c0.3,0.1,0.6,0.2,0.9,0.4c0.3,0.2,0.5,0.4,0.7,0.7
	c0.2,0.3,0.3,0.6,0.3,1c0,0.3-0.1,0.6-0.2,0.9c-0.1,0.3-0.3,0.6-0.6,0.8c-0.3,0.3-0.6,0.5-1,0.6
	C378.9,424.9,378.4,424.9,377.8,424.9z"/>
<path id="XMLID_14_" class="st0" d="M385.9,424.9c-0.6,0-1.1-0.1-1.7-0.3c-0.5-0.2-1-0.5-1.3-0.9c-0.4-0.4-0.7-0.8-0.9-1.3
	c-0.2-0.5-0.3-1-0.3-1.6s0.1-1.1,0.3-1.6c0.2-0.5,0.5-0.9,0.9-1.3c0.4-0.4,0.8-0.7,1.3-0.9s1.1-0.3,1.7-0.3c0.5,0,0.9,0.1,1.3,0.2
	s0.8,0.3,1.1,0.5s0.6,0.5,0.9,0.8c0.3,0.3,0.5,0.6,0.6,1l-1.7,0.7c-0.2-0.4-0.5-0.8-0.9-1s-0.8-0.4-1.3-0.4c-0.3,0-0.7,0.1-1,0.2
	c-0.3,0.1-0.5,0.3-0.8,0.5c-0.2,0.2-0.4,0.5-0.5,0.7c-0.1,0.3-0.2,0.6-0.2,0.9c0,0.3,0.1,0.6,0.2,0.9s0.3,0.5,0.5,0.7
	c0.2,0.2,0.5,0.4,0.8,0.5c0.3,0.1,0.6,0.2,1,0.2c0.5,0,1-0.1,1.4-0.4s0.7-0.6,0.8-1l1.7,0.7c-0.2,0.4-0.4,0.7-0.6,1
	c-0.3,0.3-0.5,0.6-0.9,0.8c-0.3,0.2-0.7,0.4-1.1,0.5C386.8,424.9,386.4,424.9,385.9,424.9z"/>
<path id="XMLID_13_" class="st0" d="M394.5,424.9c-0.6,0-1.1-0.1-1.6-0.3s-1-0.5-1.3-0.9c-0.4-0.4-0.7-0.8-0.9-1.3s-0.3-1-0.3-1.6
	s0.1-1.1,0.3-1.6c0.2-0.5,0.5-0.9,0.9-1.3s0.8-0.7,1.3-0.9s1.1-0.3,1.6-0.3c0.6,0,1.1,0.1,1.6,0.3s1,0.5,1.3,0.9
	c0.4,0.4,0.7,0.8,0.9,1.3c0.2,0.5,0.3,1,0.3,1.6s-0.1,1.1-0.3,1.6s-0.5,0.9-0.9,1.3c-0.4,0.4-0.8,0.7-1.3,0.9S395,424.9,394.5,424.9
	z M394.5,423.2c0.3,0,0.6-0.1,0.9-0.2c0.3-0.1,0.5-0.3,0.8-0.5c0.2-0.2,0.4-0.5,0.5-0.7c0.1-0.3,0.2-0.6,0.2-0.9
	c0-0.3-0.1-0.6-0.2-0.9c-0.1-0.3-0.3-0.5-0.5-0.7c-0.2-0.2-0.5-0.4-0.8-0.5c-0.3-0.1-0.6-0.2-0.9-0.2c-0.3,0-0.6,0.1-0.9,0.2
	c-0.3,0.1-0.5,0.3-0.8,0.5c-0.2,0.2-0.4,0.5-0.5,0.7c-0.1,0.3-0.2,0.6-0.2,0.9c0,0.3,0.1,0.6,0.2,0.9c0.1,0.3,0.3,0.5,0.5,0.7
	c0.2,0.2,0.5,0.4,0.8,0.5C393.8,423.1,394.1,423.2,394.5,423.2z"/>
<path id="XMLID_12_" class="st0" d="M406.8,424.9h-1.9v-1c-0.3,0.3-0.6,0.6-1,0.8c-0.4,0.2-0.8,0.3-1.4,0.3c-1,0-1.7-0.3-2.3-0.9
	c-0.6-0.6-0.8-1.4-0.8-2.5v-4.7h1.9v4.5c0,0.6,0.1,1.1,0.4,1.5c0.3,0.4,0.7,0.5,1.3,0.5c0.5,0,1-0.2,1.3-0.6
	c0.3-0.4,0.5-0.9,0.5-1.6v-4.4h1.9v8.1L406.8,424.9L406.8,424.9z"/>
<path id="XMLID_11_" class="st0" d="M407.9,416.8h1.9v1.1c0.3-0.3,0.6-0.6,1-0.8s0.9-0.3,1.4-0.3c1,0,1.8,0.3,2.4,0.9
	c0.6,0.6,0.9,1.4,0.9,2.5v4.7h-1.9v-4.5c0-0.6-0.2-1.1-0.5-1.5c-0.3-0.4-0.8-0.5-1.4-0.5c-0.5,0-1,0.2-1.4,0.6
	c-0.4,0.4-0.5,0.9-0.5,1.6v4.4h-1.9V416.8z"/>
<path id="XMLID_10_" class="st0" d="M416.2,416.8h1.4v-1.2l1.9-1.3v2.5h1.7v1.7h-1.7v3c0,0.4,0,0.6,0.1,0.9c0,0.2,0.1,0.4,0.2,0.5
	s0.3,0.2,0.5,0.2c0.2,0,0.5,0.1,0.9,0.1v1.8h-0.3c-0.6,0-1.2-0.1-1.6-0.2s-0.8-0.3-1-0.6c-0.2-0.3-0.4-0.6-0.5-1s-0.2-1-0.2-1.6
	v-3.1h-1.4V416.8z"/>
<path id="XMLID_9_" class="st0" d="M426.1,424.9c-0.6,0-1.2-0.1-1.8-0.3c-0.5-0.2-1-0.5-1.4-0.9c-0.4-0.4-0.7-0.8-0.9-1.3
	c-0.2-0.5-0.3-1-0.3-1.6s0.1-1.1,0.3-1.6s0.5-0.9,0.9-1.3c0.4-0.4,0.8-0.7,1.3-0.9s1.1-0.3,1.7-0.3s1.2,0.1,1.7,0.3s1,0.5,1.3,0.8
	c0.4,0.4,0.7,0.8,0.9,1.2c0.2,0.5,0.3,1,0.3,1.6v0.7h-6.6c0.1,0.6,0.4,1,0.8,1.4s1,0.5,1.7,0.5c0.5,0,1-0.1,1.4-0.4
	c0.4-0.3,0.7-0.6,0.9-1l1.5,0.9c-0.4,0.7-0.8,1.2-1.5,1.6C427.8,424.7,427,424.9,426.1,424.9z M426,418.4c-0.6,0-1.1,0.1-1.5,0.4
	c-0.4,0.2-0.7,0.6-0.9,1h4.6c-0.1-0.4-0.4-0.8-0.8-1C427.1,418.5,426.6,418.4,426,418.4z"/>
<path id="XMLID_8_" class="st0" d="M434.8,424.9c-0.5,0-1-0.1-1.5-0.3s-0.9-0.4-1.3-0.8c-0.4-0.3-0.7-0.8-0.9-1.3
	c-0.2-0.5-0.3-1.1-0.3-1.7c0-0.7,0.1-1.2,0.3-1.7c0.2-0.5,0.5-0.9,0.9-1.3c0.4-0.3,0.8-0.6,1.3-0.8s1-0.3,1.5-0.3s1,0.1,1.5,0.3
	s0.8,0.5,1.1,0.8v-3.3h1.9v10.3h-1.9v-1.2c-0.3,0.4-0.7,0.6-1.1,0.9C435.8,424.8,435.3,424.9,434.8,424.9z M435.1,423.2
	c0.4,0,0.7-0.1,1-0.2c0.3-0.1,0.6-0.3,0.8-0.5c0.2-0.2,0.4-0.5,0.5-0.8s0.2-0.6,0.2-0.9c0-0.3-0.1-0.6-0.2-0.9
	c-0.1-0.3-0.3-0.5-0.5-0.7c-0.2-0.2-0.5-0.4-0.8-0.5c-0.3-0.1-0.6-0.2-1-0.2c-0.3,0-0.7,0.1-1,0.2c-0.3,0.1-0.6,0.3-0.8,0.5
	c-0.2,0.2-0.4,0.5-0.5,0.7c-0.1,0.3-0.2,0.6-0.2,0.9c0,0.3,0.1,0.6,0.2,0.9c0.1,0.3,0.3,0.5,0.5,0.8c0.2,0.2,0.5,0.4,0.8,0.5
	C434.4,423.2,434.7,423.2,435.1,423.2z"/>
<path id="XMLID_7_" class="st0" d="M448.3,424.9c-0.6,0-1.1-0.1-1.5-0.3c-0.5-0.2-0.8-0.5-1.1-0.8v4.9h-1.9v-11.9h1.9v1.2
	c0.3-0.4,0.7-0.7,1.1-0.9c0.5-0.2,1-0.3,1.5-0.3s1,0.1,1.5,0.3s0.9,0.4,1.3,0.8c0.4,0.4,0.7,0.8,0.9,1.3c0.2,0.5,0.3,1.1,0.3,1.7
	c0,0.6-0.1,1.2-0.3,1.7c-0.2,0.5-0.5,0.9-0.9,1.3c-0.4,0.4-0.8,0.6-1.3,0.8C449.2,424.8,448.8,424.9,448.3,424.9z M448,423.2
	c0.3,0,0.7-0.1,1-0.2c0.3-0.1,0.6-0.3,0.8-0.5c0.2-0.2,0.4-0.5,0.5-0.8s0.2-0.6,0.2-0.9c0-0.3-0.1-0.6-0.2-0.9
	c-0.1-0.3-0.3-0.5-0.5-0.7c-0.2-0.2-0.5-0.4-0.8-0.5c-0.3-0.1-0.6-0.2-1-0.2s-0.7,0.1-1,0.2c-0.3,0.1-0.6,0.3-0.8,0.5
	c-0.2,0.2-0.4,0.5-0.5,0.7c-0.1,0.3-0.2,0.6-0.2,0.9c0,0.3,0.1,0.6,0.2,0.9c0.1,0.3,0.3,0.5,0.5,0.8c0.2,0.2,0.5,0.4,0.8,0.5
	C447.3,423.2,447.6,423.2,448,423.2z"/>
<path id="XMLID_6_" class="st0" d="M453,416.8h1.9v1.2c0.4-0.8,1.1-1.2,2.1-1.2c0.3,0,0.6,0,0.8,0.1c0.2,0.1,0.4,0.1,0.6,0.2
	l-0.7,1.8c-0.1-0.1-0.3-0.2-0.5-0.2c-0.2,0-0.4-0.1-0.7-0.1c-0.5,0-1,0.2-1.2,0.5c-0.2,0.3-0.4,0.8-0.4,1.5v4.3H453L453,416.8
	L453,416.8z"/>
<path id="XMLID_5_" class="st0" d="M458.8,414.8c0-0.4,0.1-0.6,0.3-0.9c0.2-0.3,0.5-0.3,0.9-0.3s0.7,0.1,0.9,0.3
	c0.2,0.2,0.3,0.5,0.3,0.9s-0.1,0.6-0.3,0.8c-0.2,0.2-0.5,0.3-0.9,0.3s-0.7-0.1-0.9-0.3C458.9,415.4,458.8,415.2,458.8,414.8z
	 M459,416.8h1.9v8.1H459V416.8z"/>
<path id="XMLID_4_" class="st0" d="M466,424.9c-0.6,0-1.1-0.1-1.7-0.3c-0.5-0.2-1-0.5-1.3-0.9c-0.4-0.4-0.7-0.8-0.9-1.3
	c-0.2-0.5-0.3-1-0.3-1.6s0.1-1.1,0.3-1.6c0.2-0.5,0.5-0.9,0.9-1.3s0.8-0.7,1.3-0.9s1.1-0.3,1.7-0.3c0.5,0,0.9,0.1,1.3,0.2
	c0.4,0.1,0.8,0.3,1.1,0.5c0.3,0.2,0.6,0.5,0.9,0.8s0.5,0.6,0.6,1l-1.7,0.7c-0.2-0.4-0.5-0.8-0.9-1s-0.8-0.4-1.3-0.4
	c-0.3,0-0.7,0.1-1,0.2c-0.3,0.1-0.5,0.3-0.8,0.5c-0.2,0.2-0.4,0.5-0.5,0.7c-0.1,0.3-0.2,0.6-0.2,0.9c0,0.3,0.1,0.6,0.2,0.9
	c0.1,0.3,0.3,0.5,0.5,0.7c0.2,0.2,0.5,0.4,0.8,0.5c0.3,0.1,0.6,0.2,1,0.2c0.5,0,1-0.1,1.4-0.4s0.7-0.6,0.8-1l1.7,0.7
	c-0.2,0.4-0.4,0.7-0.6,1c-0.3,0.3-0.5,0.6-0.9,0.8c-0.3,0.2-0.7,0.4-1.1,0.5C466.9,424.9,466.4,424.9,466,424.9z"/>
<path id="XMLID_3_" class="st0" d="M474.6,424.9c-0.6,0-1.2-0.1-1.8-0.3c-0.5-0.2-1-0.5-1.4-0.9s-0.7-0.8-0.9-1.3
	c-0.2-0.5-0.3-1-0.3-1.6s0.1-1.1,0.3-1.6c0.2-0.5,0.5-0.9,0.9-1.3s0.8-0.7,1.3-0.9s1.1-0.3,1.7-0.3c0.6,0,1.2,0.1,1.7,0.3
	s1,0.5,1.3,0.8c0.4,0.4,0.7,0.8,0.9,1.2c0.2,0.5,0.3,1,0.3,1.6v0.7H472c0.1,0.6,0.4,1,0.8,1.4c0.4,0.4,1,0.5,1.7,0.5
	c0.5,0,1-0.1,1.4-0.4c0.4-0.3,0.7-0.6,0.9-1l1.5,0.9c-0.4,0.7-0.8,1.2-1.5,1.6C476.3,424.7,475.5,424.9,474.6,424.9z M474.5,418.4
	c-0.6,0-1.1,0.1-1.5,0.4c-0.4,0.2-0.7,0.6-0.9,1h4.6c-0.1-0.4-0.4-0.8-0.8-1C475.6,418.5,475.1,418.4,474.5,418.4z"/>
<path id="XMLID_2_" class="st0" d="M482.1,421.5c0-0.6-0.1-1.2-0.2-1.8c-0.1-0.5-0.4-1-0.6-1.5c-0.3-0.5-0.6-0.9-1-1.2
	c-0.4-0.4-0.8-0.7-1.2-1l1.3-1.4c0.6,0.4,1.1,0.8,1.5,1.3c0.5,0.5,0.9,1,1.2,1.5c0.3,0.6,0.6,1.2,0.8,1.8c0.2,0.7,0.3,1.4,0.3,2.2
	s-0.1,1.5-0.3,2.2c-0.2,0.7-0.5,1.3-0.8,1.9c-0.3,0.6-0.7,1.1-1.2,1.6s-1,0.9-1.6,1.3l-1.2-1.6c1-0.6,1.7-1.4,2.3-2.3
	C482,423.6,482.1,422.7,482.1,421.5z"/>
<path id="XMLID_361_" class="st0" d="M292.5,386.8c4.1-29.4,37.3-46.5,66.3-44.3l189.9,14.7l-3.8,48.8
	c-4.1,29.4-37.3,46.5-66.3,44.3l-189.9-14.7L292.5,386.8z"/>
<path id="XMLID_360_" class="st1" d="M292.5,386.8c4.1-29.4,37.3-46.5,66.3-44.3l189.9,14.7l-3.8,48.8
	c-4.1,29.4-37.3,46.5-66.3,44.3l-189.9-14.7L292.5,386.8z"/>
<g id="XMLID_358_">
	
		<linearGradient id="XMLID_28_" gradientUnits="userSpaceOnUse" x1="298.8357" y1="392.4833" x2="538.6357" y2="392.4833" gradientTransform="matrix(1 0 0 1 0 4)">
		<stop  offset="0" style="stop-color:#0A529E"/>
		<stop  offset="1" style="stop-color:#0C6DB6"/>
	</linearGradient>
	<path id="XMLID_359_" class="st4" d="M298.8,396.6c1.7-29.6,31.8-49.2,59.4-49.2h180.4v48.9c-1.7,29.6-31.8,49.2-59.4,49.2H298.8
		V396.6z"/>
</g>
<g id="XMLID_236_">
	<g id="XMLID_800_">
		<path id="XMLID_919_" class="st0" d="M327.2,392.3c-1.2,0-2.3-0.2-3.4-0.7c-1-0.4-1.9-1-2.7-1.8c-0.8-0.8-1.4-1.6-1.8-2.7
			c-0.4-1-0.7-2.1-0.7-3.3s0.2-2.3,0.7-3.3s1.1-1.9,1.8-2.7c0.7-0.8,1.7-1.4,2.7-1.8c1-0.4,2.2-0.7,3.4-0.7c1.2,0,2.3,0.2,3.4,0.7
			c1,0.4,2,1,2.7,1.8s1.4,1.7,1.8,2.7s0.7,2.1,0.7,3.3c0,1.2-0.2,2.3-0.7,3.3c-0.4,1-1.1,1.9-1.8,2.7c-0.8,0.8-1.7,1.4-2.7,1.8
			C329.6,392.1,328.4,392.3,327.2,392.3z M327.2,389.2c0.8,0,1.5-0.1,2.1-0.4c0.7-0.3,1.2-0.7,1.7-1.1c0.5-0.5,0.9-1,1.2-1.7
			c0.3-0.6,0.4-1.3,0.4-2.1s-0.1-1.4-0.4-2.1c-0.3-0.6-0.7-1.2-1.2-1.7s-1.1-0.9-1.7-1.1c-0.7-0.3-1.4-0.4-2.1-0.4
			c-0.8,0-1.5,0.1-2.1,0.4c-0.7,0.3-1.2,0.7-1.7,1.1c-0.5,0.5-0.9,1-1.2,1.7c-0.3,0.6-0.4,1.3-0.4,2.1c0,0.8,0.1,1.4,0.4,2.1
			c0.3,0.6,0.7,1.2,1.2,1.7s1.1,0.9,1.7,1.1C325.8,389.1,326.5,389.2,327.2,389.2z"/>
		<path id="XMLID_917_" class="st0" d="M337.2,378.8h3.1v1.8c0.4-0.6,1-1,1.7-1.3c0.7-0.3,1.5-0.5,2.3-0.5c1.7,0,3,0.5,3.9,1.5
			s1.4,2.4,1.4,4.2v7.8h-3.1v-7.5c0-1-0.3-1.8-0.8-2.4c-0.5-0.6-1.3-0.9-2.3-0.9c-0.9,0-1.6,0.3-2.2,0.9c-0.6,0.6-0.9,1.5-0.9,2.6
			v7.2h-3.1C337.2,392.2,337.2,378.8,337.2,378.8z"/>
		<path id="XMLID_914_" class="st0" d="M358.1,392.3c-1.1,0-2-0.2-2.9-0.5s-1.6-0.8-2.2-1.4c-0.6-0.6-1.1-1.3-1.4-2.1
			c-0.3-0.8-0.5-1.7-0.5-2.6c0-0.9,0.2-1.8,0.5-2.7c0.4-0.8,0.9-1.5,1.5-2.1c0.6-0.6,1.4-1.1,2.2-1.4c0.9-0.4,1.8-0.5,2.7-0.5
			c1,0,1.9,0.2,2.8,0.5s1.6,0.8,2.2,1.4c0.6,0.6,1.1,1.3,1.4,2.1c0.3,0.8,0.5,1.7,0.5,2.6v1.1H354c0.2,1,0.7,1.7,1.4,2.3
			c0.7,0.6,1.6,0.9,2.7,0.9c0.9,0,1.6-0.2,2.3-0.6c0.6-0.4,1.1-1,1.4-1.7l2.6,1.5c-0.6,1.1-1.4,2-2.4,2.6
			C360.9,392,359.6,392.3,358.1,392.3z M358,381.5c-0.9,0-1.7,0.2-2.4,0.6c-0.7,0.4-1.2,1-1.4,1.6h7.6c-0.2-0.7-0.7-1.3-1.3-1.7
			C359.8,381.7,359,381.5,358,381.5z"/>
		<path id="XMLID_912_" class="st0" d="M371.4,378.8h2.3v-2l3.1-2.1v4.2h2.7v2.8h-2.7v5c0,0.6,0,1.1,0.1,1.4
			c0.1,0.3,0.2,0.6,0.4,0.8c0.2,0.2,0.5,0.3,0.8,0.4c0.4,0.1,0.8,0.1,1.4,0.1v2.9h-0.4c-1,0-1.9-0.1-2.6-0.3
			c-0.7-0.2-1.3-0.5-1.7-0.9s-0.7-1-0.9-1.7s-0.3-1.6-0.3-2.7v-5.1h-2.3v-2.8L371.4,378.8L371.4,378.8z"/>
		<path id="XMLID_909_" class="st0" d="M380.7,375.5c0-0.6,0.2-1.1,0.5-1.4c0.4-0.4,0.8-0.5,1.4-0.5c0.6,0,1.1,0.2,1.4,0.5
			c0.3,0.4,0.5,0.8,0.5,1.4c0,0.6-0.2,1-0.5,1.4c-0.3,0.4-0.8,0.5-1.4,0.5c-0.6,0-1.1-0.2-1.4-0.5
			C380.9,376.6,380.7,376.1,380.7,375.5z M381.1,378.8h3.1v13.4h-3.1V378.8z"/>
		<path id="XMLID_847_" class="st0" d="M386,378.8h3.1v1.7c0.4-0.5,1-1,1.6-1.3c0.7-0.3,1.4-0.5,2.2-0.5c1.1,0,1.9,0.2,2.7,0.6
			c0.7,0.4,1.3,1,1.7,1.7c0.5-0.7,1.1-1.2,1.8-1.7c0.8-0.4,1.6-0.6,2.6-0.6c1.8,0,3.2,0.5,4.1,1.5c0.9,1,1.4,2.3,1.4,4v7.9H404v-7.7
			c0-1-0.2-1.7-0.7-2.3s-1.2-0.8-2.2-0.8c-0.8,0-1.5,0.3-2.1,0.9c-0.6,0.6-0.9,1.4-0.9,2.6v7.3H395v-7.7c0-0.9-0.2-1.7-0.7-2.2
			s-1.2-0.8-2.1-0.8s-1.6,0.3-2.2,0.9c-0.6,0.6-0.9,1.5-0.9,2.6v7.3H386L386,378.8L386,378.8z"/>
		<path id="XMLID_844_" class="st0" d="M415.6,392.3c-1.1,0-2-0.2-2.9-0.5s-1.6-0.8-2.2-1.4c-0.6-0.6-1.1-1.3-1.4-2.1
			c-0.3-0.8-0.5-1.7-0.5-2.6c0-0.9,0.2-1.8,0.5-2.7c0.4-0.8,0.9-1.5,1.5-2.1c0.6-0.6,1.4-1.1,2.2-1.4c0.9-0.4,1.8-0.5,2.7-0.5
			c1,0,1.9,0.2,2.8,0.5c0.9,0.3,1.6,0.8,2.2,1.4c0.6,0.6,1.1,1.3,1.4,2.1c0.3,0.8,0.5,1.7,0.5,2.6v1.1h-10.9c0.2,1,0.7,1.7,1.4,2.3
			c0.7,0.6,1.6,0.9,2.7,0.9c0.9,0,1.6-0.2,2.3-0.6c0.6-0.4,1.1-1,1.4-1.7l2.6,1.5c-0.6,1.1-1.4,2-2.4,2.6
			C418.4,392,417.1,392.3,415.6,392.3z M415.5,381.5c-0.9,0-1.7,0.2-2.4,0.6c-0.7,0.4-1.2,1-1.4,1.6h7.6c-0.2-0.7-0.7-1.3-1.3-1.7
			C417.3,381.7,416.5,381.5,415.5,381.5z"/>
		<path id="XMLID_842_" class="st0" d="M434.5,392.3c-1.5,0-2.7-0.3-3.7-0.8c-1-0.6-1.7-1.4-2.3-2.4l2.9-1.3c0.3,0.6,0.8,1,1.3,1.4
			s1.2,0.5,1.9,0.5c0.8,0,1.3-0.2,1.7-0.5s0.6-0.7,0.6-1.1c0-0.2-0.1-0.4-0.3-0.6c-0.2-0.1-0.4-0.3-0.7-0.4c-0.3-0.1-0.6-0.2-1-0.3
			s-0.8-0.2-1.2-0.2c-0.6-0.1-1.2-0.3-1.7-0.4c-0.5-0.1-1.1-0.4-1.5-0.7s-0.8-0.6-1.1-1.1c-0.3-0.4-0.4-1-0.4-1.7
			c0-0.5,0.1-1,0.4-1.5s0.6-0.9,1.1-1.3c0.5-0.4,1-0.7,1.7-0.9c0.7-0.2,1.4-0.3,2.2-0.3c1.3,0,2.5,0.2,3.4,0.7s1.6,1.2,2.1,2
			l-2.6,1.2c-0.3-0.5-0.7-0.8-1.1-1.1c-0.5-0.3-1.1-0.4-1.7-0.4c-0.7,0-1.3,0.1-1.6,0.4c-0.4,0.3-0.5,0.6-0.5,1
			c0,0.4,0.3,0.7,0.8,0.9s1.3,0.4,2.3,0.6c0.6,0.1,1.1,0.2,1.7,0.4s1.1,0.4,1.5,0.7c0.5,0.3,0.8,0.7,1.1,1.1c0.3,0.4,0.4,1,0.4,1.7
			c0,0.5-0.1,0.9-0.3,1.4c-0.2,0.5-0.5,0.9-1,1.4s-1,0.8-1.7,1C436.3,392.2,435.4,392.3,434.5,392.3z"/>
		<path id="XMLID_840_" class="st0" d="M447.9,392.3c-1,0-1.9-0.2-2.7-0.5c-0.8-0.4-1.6-0.8-2.2-1.4c-0.6-0.6-1.1-1.3-1.5-2.1
			s-0.5-1.7-0.5-2.6c0-0.9,0.2-1.8,0.5-2.6c0.4-0.8,0.9-1.5,1.5-2.1c0.6-0.6,1.4-1.1,2.2-1.4c0.9-0.3,1.8-0.5,2.7-0.5
			c0.8,0,1.5,0.1,2.1,0.3c0.6,0.2,1.3,0.5,1.8,0.8s1,0.8,1.4,1.3s0.8,1,1,1.6l-2.8,1.1c-0.3-0.7-0.8-1.2-1.4-1.7
			c-0.6-0.5-1.4-0.6-2.2-0.6c-0.6,0-1.1,0.1-1.6,0.3s-0.9,0.5-1.3,0.8c-0.4,0.3-0.6,0.8-0.8,1.2c-0.2,0.5-0.3,1-0.3,1.5
			s0.1,1,0.3,1.5c0.2,0.5,0.5,0.9,0.8,1.2c0.4,0.3,0.8,0.6,1.3,0.8s1,0.3,1.6,0.3c0.9,0,1.6-0.2,2.2-0.7c0.6-0.4,1.1-1,1.4-1.7
			l2.8,1.1c-0.3,0.6-0.6,1.2-1,1.7s-0.9,1-1.4,1.3c-0.5,0.4-1.2,0.7-1.8,0.9C449.4,392.2,448.6,392.3,447.9,392.3z"/>
		<path id="XMLID_838_" class="st0" d="M455.5,378.8h3.1v2c0.6-1.3,1.8-2,3.4-2c0.5,0,0.9,0.1,1.3,0.2c0.4,0.1,0.7,0.2,1,0.4
			l-1.2,2.9c-0.2-0.2-0.5-0.3-0.8-0.4c-0.3-0.1-0.6-0.1-1.1-0.1c-0.9,0-1.6,0.3-2.1,0.8s-0.7,1.4-0.7,2.5v7.2h-3.1v-13.5H455.5z"/>
		<path id="XMLID_835_" class="st0" d="M472.1,392.3c-1.1,0-2-0.2-2.9-0.5s-1.6-0.8-2.2-1.4c-0.6-0.6-1.1-1.3-1.4-2.1
			s-0.5-1.7-0.5-2.6c0-0.9,0.2-1.8,0.5-2.7c0.4-0.8,0.9-1.5,1.5-2.1c0.6-0.6,1.4-1.1,2.2-1.4c0.9-0.4,1.8-0.5,2.7-0.5
			c1,0,1.9,0.2,2.8,0.5s1.6,0.8,2.2,1.4c0.6,0.6,1.1,1.3,1.4,2.1c0.3,0.8,0.5,1.7,0.5,2.6v1.1H468c0.2,1,0.7,1.7,1.4,2.3
			c0.7,0.6,1.6,0.9,2.7,0.9c0.9,0,1.6-0.2,2.3-0.6c0.6-0.4,1.1-1,1.4-1.7l2.6,1.5c-0.6,1.1-1.4,2-2.4,2.6
			C474.8,392,473.6,392.3,472.1,392.3z M471.9,381.5c-0.9,0-1.7,0.2-2.4,0.6c-0.7,0.4-1.2,1-1.4,1.6h7.6c-0.2-0.7-0.7-1.3-1.3-1.7
			C473.7,381.7,472.9,381.5,471.9,381.5z"/>
		<path id="XMLID_832_" class="st0" d="M486.9,392.3c-1.1,0-2-0.2-2.9-0.5s-1.6-0.8-2.2-1.4c-0.6-0.6-1.1-1.3-1.4-2.1
			s-0.5-1.7-0.5-2.6c0-0.9,0.2-1.8,0.5-2.7c0.4-0.8,0.9-1.5,1.5-2.1c0.6-0.6,1.4-1.1,2.2-1.4c0.9-0.4,1.8-0.5,2.7-0.5
			c1,0,1.9,0.2,2.8,0.5c0.9,0.3,1.6,0.8,2.2,1.4c0.6,0.6,1.1,1.3,1.4,2.1c0.3,0.8,0.5,1.7,0.5,2.6v1.1h-10.9c0.2,1,0.7,1.7,1.4,2.3
			c0.7,0.6,1.6,0.9,2.7,0.9c0.9,0,1.6-0.2,2.3-0.6c0.6-0.4,1.1-1,1.4-1.7l2.6,1.5c-0.6,1.1-1.4,2-2.4,2.6
			C489.7,392,488.4,392.3,486.9,392.3z M486.8,381.5c-0.9,0-1.7,0.2-2.4,0.6c-0.7,0.4-1.2,1-1.4,1.6h7.6c-0.2-0.7-0.7-1.3-1.3-1.7
			C488.6,381.7,487.8,381.5,486.8,381.5z"/>
		<path id="XMLID_830_" class="st0" d="M495.1,378.8h3.1v1.8c0.4-0.6,1-1,1.7-1.3c0.7-0.3,1.5-0.5,2.3-0.5c1.7,0,3,0.5,3.9,1.5
			s1.4,2.4,1.4,4.2v7.8h-3.1v-7.5c0-1-0.3-1.8-0.8-2.4c-0.5-0.6-1.3-0.9-2.3-0.9c-0.9,0-1.6,0.3-2.2,0.9c-0.6,0.6-0.9,1.5-0.9,2.6
			v7.2h-3.1V378.8L495.1,378.8z"/>
		<path id="XMLID_828_" class="st0" d="M509.9,379.2c0-1,0.2-1.7,0.6-2.3c0.4-0.6,1-0.9,1.8-0.9c0.4,0,0.7,0.1,1,0.2
			c0.3,0.1,0.5,0.2,0.8,0.4c0.2,0.1,0.4,0.3,0.6,0.4c0.2,0.1,0.4,0.2,0.6,0.2c0.4,0,0.6-0.4,0.6-1.1h1.8c0,1-0.2,1.7-0.6,2.3
			c-0.4,0.6-1,0.9-1.8,0.9c-0.4,0-0.8-0.1-1.1-0.2c-0.3-0.2-0.6-0.3-0.9-0.5c-0.2-0.1-0.3-0.2-0.5-0.3c-0.2-0.1-0.3-0.1-0.5-0.1
			c-0.4,0-0.6,0.4-0.6,1.1L509.9,379.2L509.9,379.2L509.9,379.2z"/>
		<path id="XMLID_826_" class="st0" d="M344.3,400.6h3.1v2c0.6-1.3,1.8-2,3.4-2c0.5,0,0.9,0.1,1.3,0.2c0.4,0.1,0.7,0.2,1,0.4
			l-1.2,2.9c-0.2-0.2-0.5-0.3-0.8-0.4c-0.3-0.1-0.6-0.1-1.1-0.1c-0.9,0-1.6,0.3-2.1,0.8s-0.7,1.4-0.7,2.5v7.2h-3.1v-13.5
			L344.3,400.6L344.3,400.6z"/>
		<path id="XMLID_823_" class="st0" d="M360.9,414c-1.1,0-2-0.2-2.9-0.5c-0.9-0.3-1.6-0.8-2.2-1.4s-1.1-1.3-1.4-2.1
			c-0.3-0.8-0.5-1.7-0.5-2.6c0-0.9,0.2-1.8,0.5-2.7c0.4-0.8,0.9-1.5,1.5-2.1c0.6-0.6,1.4-1.1,2.2-1.4c0.9-0.4,1.8-0.5,2.7-0.5
			c1,0,1.9,0.2,2.8,0.5s1.6,0.8,2.2,1.4c0.6,0.6,1.1,1.3,1.4,2.1c0.3,0.8,0.5,1.7,0.5,2.6v1.1h-10.9c0.2,1,0.7,1.7,1.4,2.3
			c0.7,0.6,1.6,0.9,2.7,0.9c0.9,0,1.6-0.2,2.3-0.6c0.6-0.4,1.1-1,1.4-1.7l2.6,1.5c-0.6,1.1-1.4,2-2.4,2.6
			C363.6,413.7,362.4,414,360.9,414z M360.7,403.3c-0.9,0-1.7,0.2-2.4,0.6c-0.7,0.4-1.2,1-1.4,1.6h7.6c-0.2-0.7-0.7-1.3-1.3-1.7
			C362.5,403.5,361.7,403.3,360.7,403.3z"/>
		<path id="XMLID_820_" class="st0" d="M376.5,414c-0.9,0-1.8-0.2-2.5-0.5c-0.8-0.3-1.4-0.8-1.9-1.4v8H369v-19.5h3.1v2
			c0.5-0.6,1.1-1.1,1.8-1.5c0.8-0.4,1.6-0.5,2.5-0.5c0.8,0,1.7,0.2,2.5,0.5c0.8,0.3,1.5,0.7,2.1,1.3c0.6,0.6,1.1,1.3,1.5,2.1
			c0.4,0.8,0.6,1.8,0.6,2.9c0,1.1-0.2,2-0.6,2.8c-0.4,0.8-0.9,1.5-1.5,2.1c-0.6,0.6-1.3,1-2.1,1.3C378.1,413.9,377.3,414,376.5,414z
			 M376,411.2c0.6,0,1.1-0.1,1.6-0.3s0.9-0.5,1.3-0.8c0.4-0.4,0.7-0.8,0.9-1.3s0.3-1,0.3-1.5s-0.1-1.1-0.3-1.5
			c-0.2-0.5-0.5-0.9-0.9-1.2c-0.4-0.3-0.8-0.6-1.3-0.8s-1-0.3-1.6-0.3c-0.6,0-1.1,0.1-1.6,0.3s-0.9,0.5-1.3,0.8
			c-0.4,0.4-0.6,0.8-0.8,1.2c-0.2,0.5-0.3,1-0.3,1.5s0.1,1.1,0.3,1.5c0.2,0.4,0.5,0.9,0.8,1.3c0.3,0.4,0.8,0.6,1.3,0.8
			S375.4,411.2,376,411.2z"/>
		<path id="XMLID_818_" class="st0" d="M384.4,397h3.1v17h-3.1V397z"/>
		<path id="XMLID_815_" class="st0" d="M395.5,414c-0.8,0-1.6-0.2-2.4-0.5c-0.8-0.3-1.5-0.7-2.1-1.3c-0.6-0.6-1.1-1.3-1.5-2.1
			c-0.4-0.8-0.6-1.8-0.6-2.8c0-1.1,0.2-2,0.6-2.9c0.4-0.9,0.9-1.5,1.5-2.1c0.6-0.6,1.3-1,2.1-1.3c0.8-0.3,1.6-0.5,2.5-0.5
			s1.7,0.2,2.5,0.5c0.8,0.3,1.4,0.8,1.9,1.3v-1.8h3.1v13.4H400V412c-0.5,0.6-1.1,1.1-1.9,1.4C397.3,413.7,396.4,414,395.5,414z
			 M396,411.2c0.6,0,1.1-0.1,1.6-0.3s0.9-0.5,1.3-0.8c0.4-0.3,0.6-0.8,0.8-1.3s0.3-1,0.3-1.5s-0.1-1-0.3-1.5
			c-0.2-0.5-0.5-0.9-0.8-1.2c-0.4-0.4-0.8-0.6-1.3-0.8s-1-0.3-1.6-0.3c-0.6,0-1.1,0.1-1.6,0.3s-0.9,0.5-1.3,0.8s-0.7,0.8-0.9,1.2
			c-0.2,0.5-0.3,1-0.3,1.5s0.1,1.1,0.3,1.5c0.2,0.4,0.5,0.9,0.9,1.3s0.8,0.6,1.3,0.8S395.4,411.2,396,411.2z"/>
		<path id="XMLID_813_" class="st0" d="M411.3,414c-1,0-1.9-0.2-2.7-0.5c-0.8-0.4-1.6-0.8-2.2-1.4s-1.1-1.3-1.5-2.1
			s-0.5-1.7-0.5-2.6c0-0.9,0.2-1.8,0.5-2.6c0.4-0.8,0.9-1.5,1.5-2.1s1.4-1.1,2.2-1.4c0.9-0.3,1.8-0.5,2.7-0.5c0.8,0,1.5,0.1,2.1,0.3
			c0.6,0.2,1.3,0.5,1.8,0.8s1,0.8,1.4,1.3c0.4,0.5,0.8,1,1,1.6l-2.8,1.1c-0.3-0.7-0.8-1.2-1.4-1.7c-0.6-0.5-1.4-0.6-2.2-0.6
			c-0.6,0-1.1,0.1-1.6,0.3s-0.9,0.5-1.3,0.8s-0.6,0.8-0.8,1.2c-0.2,0.5-0.3,1-0.3,1.5s0.1,1,0.3,1.5c0.2,0.5,0.5,0.9,0.8,1.2
			c0.4,0.3,0.8,0.6,1.3,0.8s1,0.3,1.6,0.3c0.9,0,1.6-0.2,2.2-0.7c0.6-0.4,1.1-1,1.4-1.7l2.8,1.1c-0.3,0.6-0.6,1.2-1,1.7
			c-0.4,0.5-0.9,1-1.4,1.3c-0.5,0.4-1.2,0.7-1.8,0.9C412.8,413.9,412.1,414,411.3,414z"/>
		<path id="XMLID_810_" class="st0" d="M425.6,414c-1.1,0-2-0.2-2.9-0.5s-1.6-0.8-2.2-1.4c-0.6-0.6-1.1-1.3-1.4-2.1
			c-0.3-0.8-0.5-1.7-0.5-2.6c0-0.9,0.2-1.8,0.5-2.7c0.4-0.8,0.9-1.5,1.5-2.1s1.4-1.1,2.2-1.4c0.9-0.4,1.8-0.5,2.7-0.5
			c1,0,1.9,0.2,2.8,0.5c0.9,0.3,1.6,0.8,2.2,1.4c0.6,0.6,1.1,1.3,1.4,2.1c0.3,0.8,0.5,1.7,0.5,2.6v1.1h-10.9c0.2,1,0.7,1.7,1.4,2.3
			s1.6,0.9,2.7,0.9c0.9,0,1.6-0.2,2.3-0.6c0.6-0.4,1.1-1,1.4-1.7l2.6,1.5c-0.6,1.1-1.4,2-2.4,2.6C428.3,413.7,427.1,414,425.6,414z
			 M425.5,403.3c-0.9,0-1.7,0.2-2.4,0.6c-0.7,0.4-1.2,1-1.4,1.6h7.6c-0.2-0.7-0.7-1.3-1.3-1.7C427.2,403.5,426.4,403.3,425.5,403.3z
			"/>
		<path id="XMLID_808_" class="st0" d="M433.7,400.6h3.1v1.7c0.4-0.5,1-1,1.6-1.3c0.7-0.3,1.4-0.5,2.2-0.5c1.1,0,1.9,0.2,2.7,0.6
			c0.7,0.4,1.3,1,1.7,1.7c0.5-0.7,1.1-1.2,1.8-1.7c0.8-0.4,1.6-0.6,2.6-0.6c1.8,0,3.2,0.5,4.1,1.5c0.9,1,1.4,2.3,1.4,4v7.9h-3.2
			v-7.7c0-1-0.2-1.7-0.7-2.3s-1.2-0.8-2.2-0.8c-0.8,0-1.5,0.3-2.1,0.9c-0.6,0.6-0.9,1.4-0.9,2.6v7.3h-3.1v-7.7
			c0-0.9-0.2-1.7-0.7-2.2s-1.2-0.8-2.1-0.8c-0.9,0-1.6,0.3-2.2,0.9c-0.6,0.6-0.9,1.5-0.9,2.6v7.3h-3.1L433.7,400.6L433.7,400.6z"/>
		<path id="XMLID_805_" class="st0" d="M463.3,414c-1.1,0-2-0.2-2.9-0.5s-1.6-0.8-2.2-1.4c-0.6-0.6-1.1-1.3-1.4-2.1
			s-0.5-1.7-0.5-2.6c0-0.9,0.2-1.8,0.5-2.7c0.4-0.8,0.9-1.5,1.5-2.1s1.4-1.1,2.2-1.4c0.9-0.4,1.8-0.5,2.7-0.5c1,0,1.9,0.2,2.8,0.5
			c0.9,0.3,1.6,0.8,2.2,1.4c0.6,0.6,1.1,1.3,1.4,2.1c0.3,0.8,0.5,1.7,0.5,2.6v1.1h-10.9c0.2,1,0.7,1.7,1.4,2.3
			c0.7,0.6,1.6,0.9,2.7,0.9c0.9,0,1.6-0.2,2.3-0.6c0.6-0.4,1.1-1,1.4-1.7l2.6,1.5c-0.6,1.1-1.4,2-2.4,2.6
			C466.1,413.7,464.8,414,463.3,414z M463.2,403.3c-0.9,0-1.7,0.2-2.4,0.6c-0.7,0.4-1.2,1-1.4,1.6h7.6c-0.2-0.7-0.7-1.3-1.3-1.7
			C465,403.5,464.2,403.3,463.2,403.3z"/>
		<path id="XMLID_803_" class="st0" d="M471.5,400.6h3.1v1.8c0.4-0.6,1-1,1.7-1.3c0.7-0.3,1.5-0.5,2.3-0.5c1.7,0,3,0.5,3.9,1.5
			s1.4,2.4,1.4,4.2v7.8h-3.1v-7.5c0-1-0.3-1.8-0.8-2.4c-0.5-0.6-1.3-0.9-2.3-0.9c-0.9,0-1.6,0.3-2.2,0.9c-0.6,0.6-0.9,1.5-0.9,2.6
			v7.2h-3.1L471.5,400.6L471.5,400.6z"/>
		<path id="XMLID_801_" class="st0" d="M485.3,400.6h2.3v-2l3.1-2.1v4.2h2.7v2.8h-2.7v5c0,0.6,0,1.1,0.1,1.4
			c0.1,0.3,0.2,0.6,0.4,0.8c0.2,0.2,0.5,0.3,0.8,0.4c0.4,0.1,0.8,0.1,1.4,0.1v2.9H493c-1,0-1.9-0.1-2.6-0.3s-1.3-0.5-1.7-0.9
			s-0.7-1-0.9-1.7c-0.2-0.7-0.3-1.6-0.3-2.7v-5.1h-2.3v-2.8L485.3,400.6L485.3,400.6z"/>
	</g>
</g>
<path id="XMLID_235_" class="st0" d="M-2.9,388.1c4.1-29.4,37.3-46.5,66.3-44.2l189.9,14.7l-3.8,48.8c-4.1,29.4-37.3,46.5-66.3,44.3
	L-6.6,436.9L-2.9,388.1z"/>
<path id="XMLID_234_" class="st1" d="M-2.9,388.1c4.1-29.4,37.3-46.5,66.3-44.2l189.9,14.7l-3.8,48.8c-4.1,29.4-37.3,46.5-66.3,44.3
	L-6.6,436.9L-2.9,388.1z"/>
<g id="XMLID_232_">
	
		<linearGradient id="XMLID_30_" gradientUnits="userSpaceOnUse" x1="3.3627" y1="393.7425" x2="243.1627" y2="393.7425" gradientTransform="matrix(1 0 0 1 0 4)">
		<stop  offset="0" style="stop-color:#0A529E"/>
		<stop  offset="1" style="stop-color:#0C6DB6"/>
	</linearGradient>
	<path id="XMLID_233_" class="st5" d="M3.4,397.9c1.8-29.6,31.8-49.2,59.4-49.2h180.4v48.9c-1.7,29.6-31.8,49.2-59.4,49.2H3.4V397.9
		z"/>
</g>
<g id="XMLID_1_">
	<g id="XMLID_848_">
		<path id="XMLID_906_" class="st0" d="M42.7,376.8h3.1v16.8h-3.1V376.8z"/>
		<path id="XMLID_904_" class="st0" d="M47.8,380.1h3.1v1.8c0.4-0.6,1-1,1.7-1.3s1.5-0.5,2.3-0.5c1.7,0,3,0.5,3.9,1.5
			s1.4,2.4,1.4,4.2v7.8h-3.1v-7.5c0-1-0.3-1.8-0.8-2.4s-1.3-0.9-2.3-0.9c-0.9,0-1.6,0.3-2.2,0.9c-0.6,0.6-0.9,1.5-0.9,2.7v7.2h-3.1
			C47.8,393.6,47.8,380.1,47.8,380.1z"/>
		<path id="XMLID_902_" class="st0" d="M61.5,380.1h2.3v-2l3.1-2.1v4.2h2.7v2.8h-2.7v5c0,0.6,0,1.1,0.1,1.4s0.2,0.6,0.4,0.8
			c0.2,0.2,0.5,0.3,0.8,0.4s0.8,0.1,1.4,0.1v2.9h-0.4c-1,0-1.9-0.1-2.6-0.3c-0.7-0.2-1.3-0.5-1.7-0.9s-0.7-1-0.9-1.7
			s-0.3-1.6-0.3-2.7v-5.1h-2.3L61.5,380.1L61.5,380.1z"/>
		<path id="XMLID_899_" class="st0" d="M77.8,393.6c-1.1,0-2-0.2-2.9-0.5s-1.6-0.8-2.2-1.4s-1.1-1.3-1.4-2.1s-0.5-1.7-0.5-2.6
			s0.2-1.8,0.5-2.7c0.4-0.8,0.9-1.5,1.5-2.1s1.4-1.1,2.2-1.4c0.9-0.4,1.8-0.5,2.7-0.5c1,0,1.9,0.2,2.8,0.5s1.6,0.8,2.2,1.4
			s1.1,1.3,1.4,2.1c0.3,0.8,0.5,1.7,0.5,2.6v1.1H73.7c0.2,1,0.7,1.7,1.4,2.3c0.7,0.6,1.6,0.9,2.7,0.9c0.9,0,1.6-0.2,2.3-0.6
			s1.1-1,1.4-1.7l2.6,1.5c-0.6,1.1-1.4,2-2.4,2.6S79.3,393.6,77.8,393.6z M77.7,382.8c-0.9,0-1.7,0.2-2.4,0.6s-1.2,1-1.4,1.6h7.6
			c-0.2-0.7-0.7-1.3-1.3-1.7C79.5,383,78.7,382.8,77.7,382.8z"/>
		<path id="XMLID_897_" class="st0" d="M86,380.1h3.1v2c0.6-1.3,1.8-2,3.4-2c0.5,0,0.9,0.1,1.3,0.2s0.7,0.2,1,0.4l-1.2,2.9
			c-0.2-0.2-0.5-0.3-0.8-0.4s-0.6-0.1-1.1-0.1c-0.9,0-1.6,0.3-2.1,0.8s-0.7,1.4-0.7,2.5v7.2h-3.1v-13.5H86z"/>
		<path id="XMLID_895_" class="st0" d="M95.9,380.1H99v1.8c0.4-0.6,1-1,1.7-1.3s1.5-0.5,2.3-0.5c1.7,0,3,0.5,3.9,1.5
			s1.4,2.4,1.4,4.2v7.8h-3.1v-7.5c0-1-0.3-1.8-0.8-2.4s-1.3-0.9-2.3-0.9c-0.9,0-1.6,0.3-2.2,0.9s-0.9,1.5-0.9,2.6v7.2h-3.1V380.1z"
			/>
		<path id="XMLID_892_" class="st0" d="M116.8,393.6c-1.1,0-2-0.2-2.9-0.5s-1.6-0.8-2.2-1.4s-1.1-1.3-1.4-2.1s-0.5-1.7-0.5-2.6
			s0.2-1.8,0.5-2.7c0.4-0.8,0.9-1.5,1.5-2.1s1.4-1.1,2.2-1.4c0.9-0.4,1.8-0.5,2.7-0.5c1,0,1.9,0.2,2.8,0.5s1.6,0.8,2.2,1.4
			s1.1,1.3,1.4,2.1c0.3,0.8,0.5,1.7,0.5,2.6v1.1h-10.9c0.2,1,0.7,1.7,1.4,2.3c0.7,0.6,1.6,0.9,2.7,0.9c0.9,0,1.6-0.2,2.3-0.6
			s1.1-1,1.4-1.7l2.6,1.5c-0.6,1.1-1.4,2-2.4,2.6S118.3,393.6,116.8,393.6z M116.7,382.8c-0.9,0-1.7,0.2-2.4,0.6s-1.2,1-1.4,1.6h7.6
			c-0.2-0.7-0.7-1.3-1.3-1.7C118.5,383,117.7,382.8,116.7,382.8z"/>
		<path id="XMLID_890_" class="st0" d="M124.5,380.1h2.3v-2l3.1-2.1v4.2h2.7v2.8h-2.7v5c0,0.6,0,1.1,0.1,1.4s0.2,0.6,0.4,0.8
			c0.2,0.2,0.5,0.3,0.8,0.4s0.8,0.1,1.4,0.1v2.9h-0.4c-1,0-1.9-0.1-2.6-0.3c-0.7-0.2-1.3-0.5-1.7-0.9c-0.4-0.4-0.7-1-0.9-1.7
			c-0.2-0.7-0.3-1.6-0.3-2.7v-5.1h-2.3L124.5,380.1L124.5,380.1L124.5,380.1z"/>
		<path id="XMLID_887_" class="st0" d="M146,393.6c-0.8,0-1.6-0.2-2.4-0.5c-0.8-0.3-1.5-0.7-2.1-1.3c-0.6-0.6-1.1-1.3-1.5-2.1
			c-0.4-0.8-0.6-1.8-0.6-2.8c0-1.1,0.2-2,0.6-2.9s0.9-1.5,1.5-2.1s1.3-1,2.1-1.3s1.6-0.5,2.5-0.5s1.7,0.2,2.4,0.5s1.4,0.8,1.9,1.4
			v-5.4h3.1v17h-3.1v-1.9c-0.5,0.6-1.1,1.1-1.9,1.4C147.7,393.4,146.9,393.6,146,393.6z M146.5,390.7c0.6,0,1.1-0.1,1.6-0.3
			c0.5-0.2,0.9-0.5,1.3-0.8c0.4-0.4,0.6-0.8,0.8-1.3s0.3-1,0.3-1.5s-0.1-1-0.3-1.5s-0.5-0.9-0.8-1.2c-0.4-0.4-0.8-0.6-1.3-0.8
			c-0.5-0.2-1-0.3-1.6-0.3s-1.1,0.1-1.6,0.3c-0.5,0.2-0.9,0.5-1.3,0.8c-0.4,0.3-0.7,0.8-0.9,1.2c-0.2,0.5-0.3,1-0.3,1.5
			s0.1,1.1,0.3,1.5c0.2,0.5,0.5,0.9,0.9,1.3s0.8,0.6,1.3,0.8C145.4,390.6,145.9,390.7,146.5,390.7z"/>
		<path id="XMLID_884_" class="st0" d="M161.4,393.6c-0.8,0-1.6-0.2-2.4-0.5c-0.8-0.3-1.5-0.7-2.1-1.3c-0.6-0.6-1.1-1.3-1.5-2.1
			c-0.4-0.8-0.6-1.8-0.6-2.8c0-1.1,0.2-2,0.6-2.9s0.9-1.5,1.5-2.1s1.3-1,2.1-1.3s1.6-0.5,2.5-0.5s1.7,0.2,2.5,0.5s1.4,0.8,1.9,1.3
			v-1.8h3.1v13.4h-3.1v-1.9c-0.5,0.6-1.1,1.1-1.9,1.4C163.2,393.3,162.3,393.6,161.4,393.6z M161.9,390.7c0.6,0,1.1-0.1,1.6-0.3
			c0.5-0.2,0.9-0.5,1.3-0.8c0.4-0.4,0.6-0.8,0.8-1.3s0.3-1,0.3-1.5s-0.1-1-0.3-1.5s-0.5-0.9-0.8-1.2c-0.4-0.4-0.8-0.6-1.3-0.8
			c-0.5-0.2-1-0.3-1.6-0.3s-1.1,0.1-1.6,0.3c-0.5,0.2-0.9,0.5-1.3,0.8c-0.4,0.3-0.7,0.8-0.9,1.2c-0.2,0.5-0.3,1-0.3,1.5
			s0.1,1.1,0.3,1.5c0.2,0.5,0.5,0.9,0.9,1.3s0.8,0.6,1.3,0.8C160.8,390.6,161.3,390.7,161.9,390.7z"/>
		<path id="XMLID_882_" class="st0" d="M170.2,380.1h2.3v-2l3.1-2.1v4.2h2.7v2.8h-2.7v5c0,0.6,0,1.1,0.1,1.4s0.2,0.6,0.4,0.8
			c0.2,0.2,0.5,0.3,0.8,0.4s0.8,0.1,1.4,0.1v2.9h-0.4c-1,0-1.9-0.1-2.6-0.3c-0.7-0.2-1.3-0.5-1.7-0.9s-0.7-1-0.9-1.7
			s-0.3-1.6-0.3-2.7v-5.1h-2.3L170.2,380.1L170.2,380.1L170.2,380.1z"/>
		<path id="XMLID_879_" class="st0" d="M186,393.6c-0.8,0-1.6-0.2-2.4-0.5c-0.8-0.3-1.5-0.7-2.1-1.3c-0.6-0.6-1.1-1.3-1.5-2.1
			c-0.4-0.8-0.6-1.8-0.6-2.8c0-1.1,0.2-2,0.6-2.9s0.9-1.5,1.5-2.1s1.3-1,2.1-1.3s1.6-0.5,2.5-0.5s1.7,0.2,2.5,0.5s1.4,0.8,1.9,1.3
			v-1.8h3.1v13.4h-3.1v-1.9c-0.5,0.6-1.1,1.1-1.9,1.4C187.8,393.3,186.9,393.6,186,393.6z M186.5,390.7c0.6,0,1.1-0.1,1.6-0.3
			c0.5-0.2,0.9-0.5,1.3-0.8c0.4-0.4,0.6-0.8,0.8-1.3s0.3-1,0.3-1.5s-0.1-1-0.3-1.5s-0.5-0.9-0.8-1.2c-0.4-0.4-0.8-0.6-1.3-0.8
			c-0.5-0.2-1-0.3-1.6-0.3s-1.1,0.1-1.6,0.3c-0.5,0.2-0.9,0.5-1.3,0.8c-0.4,0.3-0.7,0.8-0.9,1.2c-0.2,0.5-0.3,1-0.3,1.5
			s0.1,1.1,0.3,1.5c0.2,0.5,0.5,0.9,0.9,1.3s0.8,0.6,1.3,0.8C185.4,390.6,185.9,390.7,186.5,390.7z"/>
		<path id="XMLID_876_" class="st0" d="M200.8,383.8h-2.3v2.1h-1.8v-2.1h-2v-1.7h2v-2.3h-2v-1.7h2v-1.9h1.8v1.9h2.3v-1.9h1.8v1.9
			h2.1v1.7h-2.1v2.3h2.1v1.7h-2.1v2.1h-1.8V383.8z M198.5,382.1h2.3v-2.3h-2.3V382.1z"/>
		<path id="XMLID_873_" class="st0" d="M60.8,415.3c-0.9,0-1.8-0.2-2.5-0.5c-0.8-0.3-1.4-0.8-1.9-1.4v1.9h-3.1v-17h3.1v5.5
			c0.5-0.6,1.1-1.1,1.9-1.4c0.8-0.3,1.6-0.5,2.5-0.5c0.8,0,1.7,0.2,2.5,0.5s1.5,0.7,2.1,1.3c0.6,0.6,1.1,1.3,1.5,2.1
			c0.4,0.8,0.6,1.8,0.6,2.9s-0.2,2-0.6,2.8s-0.9,1.5-1.5,2.1s-1.3,1-2.1,1.3C62.4,415.2,61.6,415.3,60.8,415.3z M60.3,412.5
			c0.6,0,1.1-0.1,1.6-0.3c0.5-0.2,0.9-0.5,1.3-0.8c0.4-0.3,0.7-0.8,0.9-1.3c0.2-0.5,0.3-1,0.3-1.5s-0.1-1.1-0.3-1.5
			c-0.2-0.5-0.5-0.9-0.9-1.2s-0.8-0.6-1.3-0.8c-0.5-0.2-1-0.3-1.6-0.3s-1.1,0.1-1.6,0.3c-0.5,0.2-0.9,0.5-1.3,0.8
			c-0.4,0.4-0.6,0.8-0.8,1.2c-0.2,0.5-0.3,1-0.3,1.5s0.1,1.1,0.3,1.5c0.2,0.5,0.5,0.9,0.8,1.3s0.8,0.6,1.3,0.8
			S59.7,412.5,60.3,412.5z"/>
		<path id="XMLID_871_" class="st0" d="M80.8,415.3h-3.1v-1.7c-0.4,0.5-1,1-1.6,1.3s-1.4,0.5-2.3,0.5c-1.6,0-2.9-0.5-3.8-1.5
			s-1.4-2.4-1.4-4.2v-7.8h3.1v7.5c0,1,0.2,1.8,0.7,2.4s1.2,0.9,2.2,0.9c0.9,0,1.6-0.3,2.1-0.9c0.6-0.6,0.9-1.5,0.9-2.6V402h3.1v13.3
			L80.8,415.3L80.8,415.3z"/>
		<path id="XMLID_869_" class="st0" d="M82.6,401.9h3.1v1.8c0.4-0.6,1-1,1.7-1.3s1.5-0.5,2.3-0.5c1.7,0,3,0.5,3.9,1.5
			s1.4,2.4,1.4,4.2v7.8h-3.1v-7.5c0-1-0.3-1.8-0.8-2.4s-1.3-0.9-2.3-0.9c-0.9,0-1.6,0.3-2.2,0.9s-0.9,1.5-0.9,2.6v7.2h-3.1V401.9z"
			/>
		<path id="XMLID_866_" class="st0" d="M103,415.3c-0.8,0-1.6-0.2-2.4-0.5s-1.5-0.7-2.1-1.3s-1.1-1.3-1.5-2.1s-0.6-1.8-0.6-2.8
			c0-1.1,0.2-2,0.6-2.9s0.9-1.5,1.5-2.1s1.3-1,2.1-1.3c0.8-0.3,1.6-0.5,2.5-0.5s1.7,0.2,2.4,0.5c0.7,0.3,1.4,0.8,1.9,1.4v-5.4h3.1
			v17h-3.1v-1.9c-0.5,0.6-1.1,1.1-1.9,1.4C104.7,415.1,103.9,415.3,103,415.3z M103.5,412.5c0.6,0,1.1-0.1,1.6-0.3
			c0.5-0.2,0.9-0.5,1.3-0.8c0.4-0.4,0.6-0.8,0.8-1.3c0.2-0.5,0.3-1,0.3-1.5s-0.1-1-0.3-1.5c-0.2-0.5-0.5-0.9-0.8-1.2
			c-0.4-0.4-0.8-0.6-1.3-0.8c-0.5-0.2-1-0.3-1.6-0.3s-1.1,0.1-1.6,0.3c-0.5,0.2-0.9,0.5-1.3,0.8s-0.7,0.8-0.9,1.2
			c-0.2,0.5-0.3,1-0.3,1.5s0.1,1.1,0.3,1.5c0.2,0.5,0.5,0.9,0.9,1.3s0.8,0.6,1.3,0.8S102.9,412.5,103.5,412.5z"/>
		<path id="XMLID_864_" class="st0" d="M112.2,398.3h3.1v17h-3.1V398.3z"/>
		<path id="XMLID_861_" class="st0" d="M123.8,415.3c-1.1,0-2-0.2-2.9-0.5s-1.6-0.8-2.2-1.4s-1.1-1.3-1.4-2.1
			c-0.3-0.8-0.5-1.7-0.5-2.6s0.2-1.8,0.5-2.7c0.4-0.8,0.9-1.5,1.5-2.1s1.4-1.1,2.2-1.4c0.9-0.4,1.8-0.5,2.7-0.5c1,0,1.9,0.2,2.8,0.5
			s1.6,0.8,2.2,1.4c0.6,0.6,1.1,1.3,1.4,2.1s0.5,1.7,0.5,2.6v1.1h-10.9c0.2,1,0.7,1.7,1.4,2.3s1.6,0.9,2.7,0.9
			c0.9,0,1.6-0.2,2.3-0.6c0.7-0.4,1.1-1,1.4-1.7l2.6,1.5c-0.6,1.1-1.4,2-2.4,2.6C126.7,415.3,125.3,415.3,123.8,415.3z M123.7,404.6
			c-0.9,0-1.7,0.2-2.4,0.6c-0.7,0.4-1.2,1-1.4,1.6h7.6c-0.2-0.7-0.7-1.3-1.3-1.7C125.4,404.8,124.6,404.6,123.7,404.6z"/>
		<path id="XMLID_858_" class="st0" d="M144.1,415.3c-1,0-1.9-0.2-2.7-0.5c-0.9-0.3-1.6-0.8-2.2-1.4c-0.6-0.6-1.1-1.3-1.5-2.1
			c-0.4-0.8-0.5-1.7-0.5-2.6s0.2-1.8,0.5-2.6c0.4-0.8,0.9-1.5,1.5-2.1s1.4-1.1,2.2-1.4c0.9-0.3,1.8-0.5,2.7-0.5c1,0,1.9,0.2,2.7,0.5
			s1.6,0.8,2.2,1.4c0.6,0.6,1.1,1.3,1.5,2.1s0.5,1.7,0.5,2.6s-0.2,1.8-0.5,2.6c-0.4,0.8-0.9,1.5-1.5,2.1s-1.4,1.1-2.2,1.4
			C146,415.2,145.1,415.3,144.1,415.3z M144.1,412.4c0.6,0,1.1-0.1,1.5-0.3c0.5-0.2,0.9-0.5,1.2-0.8c0.4-0.3,0.6-0.8,0.8-1.2
			c0.2-0.5,0.3-1,0.3-1.5s-0.1-1-0.3-1.5s-0.5-0.9-0.8-1.2s-0.8-0.6-1.2-0.8c-0.5-0.2-1-0.3-1.5-0.3c-0.6,0-1.1,0.1-1.6,0.3
			c-0.5,0.2-0.9,0.5-1.2,0.8s-0.6,0.8-0.8,1.2c-0.2,0.5-0.3,1-0.3,1.5s0.1,1,0.3,1.5s0.5,0.9,0.8,1.2c0.3,0.3,0.8,0.6,1.2,0.8
			C143.1,412.3,143.6,412.4,144.1,412.4z"/>
		<path id="XMLID_856_" class="st0" d="M151.9,401.9h2.3l0,0c0-1,0.1-1.8,0.3-2.5s0.5-1.2,1-1.7c0.4-0.4,1-0.7,1.7-0.9
			c0.7-0.2,1.6-0.3,2.6-0.3h0.3v2.9c-0.6,0-1.1,0-1.5,0.1s-0.6,0.2-0.8,0.4c-0.2,0.2-0.3,0.5-0.4,0.8c-0.1,0.3-0.1,0.7-0.1,1.2h2.8
			v2.8h-2.8v10.7h-3.1v-10.8h-2.3V401.9z"/>
		<path id="XMLID_854_" class="st0" d="M160.9,401.9h2.3l0,0c0-1,0.1-1.8,0.3-2.5s0.5-1.2,1-1.7c0.4-0.4,1-0.7,1.7-0.9
			c0.7-0.2,1.6-0.3,2.6-0.3h0.3v2.9c-0.6,0-1.1,0-1.5,0.1s-0.6,0.2-0.8,0.4c-0.2,0.2-0.3,0.5-0.4,0.8c-0.1,0.3-0.1,0.7-0.1,1.2h2.8
			v2.8h-2.8v10.7h-3.1v-10.8h-2.3V401.9z"/>
		<path id="XMLID_851_" class="st0" d="M177.1,415.3c-1.1,0-2-0.2-2.9-0.5s-1.6-0.8-2.2-1.4c-0.6-0.6-1.1-1.3-1.4-2.1
			c-0.3-0.8-0.5-1.7-0.5-2.6s0.2-1.8,0.5-2.7c0.4-0.8,0.9-1.5,1.5-2.1s1.4-1.1,2.2-1.4c0.9-0.4,1.8-0.5,2.7-0.5c1,0,1.9,0.2,2.8,0.5
			c0.9,0.3,1.6,0.8,2.2,1.4c0.6,0.6,1.1,1.3,1.4,2.1s0.5,1.7,0.5,2.6v1.1h-11c0.2,1,0.7,1.7,1.4,2.3s1.6,0.9,2.7,0.9
			c0.9,0,1.6-0.2,2.3-0.6s1.1-1,1.4-1.7l2.6,1.5c-0.6,1.1-1.4,2-2.4,2.6S178.6,415.3,177.1,415.3z M177,404.6
			c-0.9,0-1.7,0.2-2.4,0.6s-1.2,1-1.4,1.6h7.6c-0.2-0.7-0.7-1.3-1.3-1.7C178.7,404.8,177.9,404.6,177,404.6z"/>
		<path id="XMLID_849_" class="st0" d="M185.3,401.9h3.1v2c0.6-1.3,1.8-2,3.4-2c0.5,0,0.9,0.1,1.3,0.2c0.4,0.1,0.7,0.2,1,0.4
			l-1.2,2.9c-0.2-0.2-0.5-0.3-0.8-0.4s-0.6-0.1-1.1-0.1c-0.9,0-1.6,0.3-2.1,0.8s-0.7,1.4-0.7,2.5v7.2h-3.1v-13.5H185.3z"/>
	</g>
</g>
<g id="XMLID_29_">
</g>
</svg>
